<svg version="1.1" xmlns="http://www.w3.org/2000/svg" viewBox="0 0 1069.9867640904017 1420.4986288888113" width="3209.960292271205" height="4261.495886666434">
  <!-- svg-source:excalidraw -->
  
  <defs>
    <style>
      @font-face {
        font-family: "Virgil";
        src: url("https://excalidraw.com/Virgil.woff2");
      }
      @font-face {
        font-family: "Cascadia";
        src: url("https://excalidraw.com/Cascadia.woff2");
      }
    </style>
  </defs>
  <rect x="0" y="0" width="1069.9867640904017" height="1420.4986288888113" fill="#ffffff"></rect><g stroke-linecap="round" transform="translate(11.684783935546875 117.48877934047147) rotate(0 168.2100219726563 174.92616271972656)"><path d="M0 0 C95.63 0, 191.26 0, 336.42 0 M0 0 C76.25 0, 152.51 0, 336.42 0 M336.42 0 C336.42 126.09, 336.42 252.18, 336.42 349.85 M336.42 0 C336.42 100.92, 336.42 201.84, 336.42 349.85 M336.42 349.85 C218.04 349.85, 99.65 349.85, 0 349.85 M336.42 349.85 C201.89 349.85, 67.35 349.85, 0 349.85 M0 349.85 C0 233.64, 0 117.43, 0 0 M0 349.85 C0 262.45, 0 175.04, 0 0" stroke="#000000" stroke-width="1" fill="none"></path></g><g stroke-linecap="round"><g transform="translate(12.634857177734375 182.89936283656522) rotate(0 167.6204833984375 -0.2353515625)"><path d="M0 0 C55.87 -0.08, 279.37 -0.39, 335.24 -0.47 M0 0 C55.87 -0.08, 279.37 -0.39, 335.24 -0.47" stroke="#000000" stroke-width="1" fill="none"></path></g></g><g transform="translate(151.92709350585938 134.48713139125272) rotate(0 24.5 10.5)"><text x="0" y="16" font-family="Helvetica, Segoe UI Emoji" font-size="20px" fill="#000000" text-anchor="start" style="white-space: pre;" direction="ltr">users</text></g><g stroke-linecap="round"><g transform="translate(10 329.56397465297147) rotate(0 168.8268585205078 0.4495849609375)"><path d="M0 0 C56.28 0.15, 281.38 0.75, 337.65 0.9 M0 0 C56.28 0.15, 281.38 0.75, 337.65 0.9" stroke="#000000" stroke-width="1" fill="none"></path></g></g><g transform="translate(23.23785400390625 188.90869358607694) rotate(0 149.5 34.5)"><text x="0" y="18" font-family="Helvetica, Segoe UI Emoji" font-size="20px" fill="#000000" text-anchor="start" style="white-space: pre;" direction="ltr">- username: INT (PRIMARY KEY)</text><text x="0" y="41" font-family="Helvetica, Segoe UI Emoji" font-size="20px" fill="#000000" text-anchor="start" style="white-space: pre;" direction="ltr">- name: STRING</text><text x="0" y="64" font-family="Helvetica, Segoe UI Emoji" font-size="20px" fill="#000000" text-anchor="start" style="white-space: pre;" direction="ltr">- password: #</text></g><g stroke-linecap="round" transform="translate(641.4639129638673 951.5781882149831) rotate(0 203.31077575683582 218.76998901367188)"><path d="M0 0 C136.87 0, 273.73 0, 406.62 0 M0 0 C98.35 0, 196.69 0, 406.62 0 M406.62 0 C406.62 111.09, 406.62 222.18, 406.62 437.54 M406.62 0 C406.62 124.58, 406.62 249.17, 406.62 437.54 M406.62 437.54 C278.75 437.54, 150.87 437.54, 0 437.54 M406.62 437.54 C292.13 437.54, 177.63 437.54, 0 437.54 M0 437.54 C0 320.95, 0 204.36, 0 0 M0 437.54 C0 278.84, 0 120.15, 0 0" stroke="#000000" stroke-width="1" fill="none"></path></g><g stroke-linecap="round"><g transform="translate(639.4975891113282 1025.136003766741) rotate(0 203.87802124023426 -1.049041748046875)"><path d="M0 0 C67.96 -0.35, 339.8 -1.75, 407.76 -2.1 M0 0 C67.96 -0.35, 339.8 -1.75, 407.76 -2.1" stroke="#000000" stroke-width="1" fill="none"></path></g></g><g stroke-linecap="round"><g transform="translate(640.2361907958986 1226.8128683907644) rotate(0 204.56832885742176 0.3224945068359375)"><path d="M0 0 C68.19 0.11, 340.95 0.54, 409.14 0.64 M0 0 C68.19 0.11, 340.95 0.54, 409.14 0.64" stroke="#000000" stroke-width="1" fill="none"></path></g></g><g transform="translate(742.1604003906251 976.4288962227956) rotate(0 38.5 10.5)"><text x="0" y="16" font-family="Helvetica, Segoe UI Emoji" font-size="20px" fill="#000000" text-anchor="start" style="white-space: pre;" direction="ltr">products</text></g><g transform="translate(653.0270233154298 1031.6894400460378) rotate(0 197 80.5)"><text x="0" y="18" font-family="Helvetica, Segoe UI Emoji" font-size="20px" fill="#000000" text-anchor="start" style="white-space: pre;" direction="ltr">- id: INT (PRIMARY KEY)</text><text x="0" y="41" font-family="Helvetica, Segoe UI Emoji" font-size="20px" fill="#000000" text-anchor="start" style="white-space: pre;" direction="ltr">- title: STRING</text><text x="0" y="64" font-family="Helvetica, Segoe UI Emoji" font-size="20px" fill="#000000" text-anchor="start" style="white-space: pre;" direction="ltr">- price: FLOAT</text><text x="0" y="87" font-family="Helvetica, Segoe UI Emoji" font-size="20px" fill="#000000" text-anchor="start" style="white-space: pre;" direction="ltr">- description: STRING </text><text x="0" y="110" font-family="Helvetica, Segoe UI Emoji" font-size="20px" fill="#000000" text-anchor="start" style="white-space: pre;" direction="ltr">- category_id: Category.id (FOREIGN KEY)  </text><text x="0" y="133" font-family="Helvetica, Segoe UI Emoji" font-size="20px" fill="#000000" text-anchor="start" style="white-space: pre;" direction="ltr">- image: STRING</text><text x="0" y="156" font-family="Helvetica, Segoe UI Emoji" font-size="20px" fill="#000000" text-anchor="start" style="white-space: pre;" direction="ltr">- </text></g><g stroke-linecap="round" transform="translate(692.3695220947269 10) rotate(0 175.69003295898438 136.53055899483817)"><path d="M0 0 C74.73 0, 149.46 0, 351.38 0 M0 0 C105.05 0, 210.1 0, 351.38 0 M351.38 0 C351.38 93.64, 351.38 187.27, 351.38 273.06 M351.38 0 C351.38 93.07, 351.38 186.15, 351.38 273.06 M351.38 273.06 C237.61 273.06, 123.85 273.06, 0 273.06 M351.38 273.06 C259.8 273.06, 168.21 273.06, 0 273.06 M0 273.06 C0 171.16, 0 69.25, 0 0 M0 273.06 C0 199.19, 0 125.33, 0 0" stroke="#000000" stroke-width="1" fill="none"></path></g><g stroke-linecap="round"><g transform="translate(692.8110198974613 74.90185546875) rotate(0 175.50515747070312 -0.9983863830566406)"><path d="M0 0 C58.5 -0.33, 292.51 -1.66, 351.01 -2 M0 0 C58.5 -0.33, 292.51 -1.66, 351.01 -2" stroke="#000000" stroke-width="1" fill="none"></path></g></g><g transform="translate(832.6119079589847 24.822957356770814) rotate(0 34.5 10.5)"><text x="0" y="16" font-family="Helvetica, Segoe UI Emoji" font-size="20px" fill="#000000" text-anchor="start" style="white-space: pre;" direction="ltr">baskets</text></g><g stroke-linecap="round"><g transform="translate(690.6848144531253 221.56646728515628) rotate(0 175.94851684570312 1.2126388549804688)"><path d="M0 0 C58.65 0.4, 293.25 2.02, 351.9 2.43 M0 0 C58.65 0.4, 293.25 2.02, 351.9 2.43" stroke="#000000" stroke-width="1" fill="none"></path></g></g><g transform="translate(707.3462851388118 79.44067600795199) rotate(0 153.5 23)"><text x="0" y="18" font-family="Helvetica, Segoe UI Emoji" font-size="20px" fill="#000000" text-anchor="start" style="white-space: pre;" direction="ltr">- id: INT (PRIMARY KEY)</text><text x="0" y="41" font-family="Helvetica, Segoe UI Emoji" font-size="20px" fill="#000000" text-anchor="start" style="white-space: pre;" direction="ltr">- user_id: User.id (FOREIGN KEY)</text></g><g stroke-linecap="round" transform="translate(680.4976283482146 477.8313108171735) rotate(0 189.74456787109364 118.79212788173126)"><path d="M0 0 C117.25 0, 234.49 0, 379.49 0 M0 0 C79.66 0, 159.33 0, 379.49 0 M379.49 0 C379.49 52.87, 379.49 105.74, 379.49 237.58 M379.49 0 C379.49 94.24, 379.49 188.48, 379.49 237.58 M379.49 237.58 C251.83 237.58, 124.17 237.58, 0 237.58 M379.49 237.58 C295.89 237.58, 212.3 237.58, 0 237.58 M0 237.58 C0 165.47, 0 93.36, 0 0 M0 237.58 C0 174.45, 0 111.31, 0 0" stroke="#000000" stroke-width="1" fill="none"></path></g><g stroke-linecap="round"><g transform="translate(674.9725734165739 537.4578138078962) rotate(0 188.1061553955077 0.9758567810058594)"><path d="M0 0 C62.7 0.33, 313.51 1.63, 376.21 1.95 M0 0 C62.7 0.33, 313.51 1.63, 376.21 1.95" stroke="#000000" stroke-width="1" fill="none"></path></g></g><g transform="translate(807.9433070591521 498.85622079031805) rotate(0 59 11.5)"><text x="0" y="18" font-family="Helvetica, Segoe UI Emoji" font-size="20px" fill="#000000" text-anchor="start" style="white-space: pre;" direction="ltr">basket_items</text></g><g transform="translate(686.0835658482146 550.6310086931501) rotate(0 180 46)"><text x="0" y="18" font-family="Helvetica, Segoe UI Emoji" font-size="20px" fill="#000000" text-anchor="start" style="white-space: pre;" direction="ltr">- id: INT</text><text x="0" y="41" font-family="Helvetica, Segoe UI Emoji" font-size="20px" fill="#000000" text-anchor="start" style="white-space: pre;" direction="ltr">- quantity: INT</text><text x="0" y="64" font-family="Helvetica, Segoe UI Emoji" font-size="20px" fill="#000000" text-anchor="start" style="white-space: pre;" direction="ltr">- product_id: product.id (FOREIGN KEY)</text><text x="0" y="87" font-family="Helvetica, Segoe UI Emoji" font-size="20px" fill="#000000" text-anchor="start" style="white-space: pre;" direction="ltr">- basket_id: basket.id (FOREIGN KEY)</text></g><g stroke-linecap="round" transform="translate(18.069442749023438 964.3194296700613) rotate(0 168.71387481689453 223.089599609375)"><path d="M0 0 C80.57 0, 161.13 0, 337.43 0 M0 0 C126.12 0, 252.24 0, 337.43 0 M337.43 0 C337.43 153.29, 337.43 306.59, 337.43 446.18 M337.43 0 C337.43 144.91, 337.43 289.82, 337.43 446.18 M337.43 446.18 C254.99 446.18, 172.56 446.18, 0 446.18 M337.43 446.18 C219.8 446.18, 102.18 446.18, 0 446.18 M0 446.18 C0 322.42, 0 198.65, 0 0 M0 446.18 C0 345.91, 0 245.64, 0 0" stroke="#000000" stroke-width="1" fill="none"></path></g><g stroke-linecap="round"><g transform="translate(17.19976806640625 1031.7207053048269) rotate(0 168.99124145507812 -0.743560791015625)"><path d="M0 0 C56.33 -0.25, 281.65 -1.24, 337.98 -1.49 M0 0 C56.33 -0.25, 281.65 -1.24, 337.98 -1.49" stroke="#000000" stroke-width="1" fill="none"></path></g></g><g transform="translate(112.17543029785156 984.4484579903738) rotate(0 46 10.5)"><text x="0" y="16" font-family="Helvetica, Segoe UI Emoji" font-size="20px" fill="#000000" text-anchor="start" style="white-space: pre;" direction="ltr">categories</text></g><g transform="translate(40.42139434814453 1044.9557364327566) rotate(0 113 23)"><text x="0" y="18" font-family="Helvetica, Segoe UI Emoji" font-size="20px" fill="#000000" text-anchor="start" style="white-space: pre;" direction="ltr">- id: INT (PRIMARY KEY)</text><text x="0" y="41" font-family="Helvetica, Segoe UI Emoji" font-size="20px" fill="#000000" text-anchor="start" style="white-space: pre;" direction="ltr">- title: STRING</text></g><g stroke-linecap="round"><g transform="translate(346.9042489188058 197.32961818150096) rotate(0 171.73854282924094 -40.00954764229911)"><path d="M0 0 C73.66 -0.63, 147.33 -1.27, 189.77 -1.63 M0 0 C70.04 -0.6, 140.07 -1.21, 189.77 -1.63 M189.77 -1.63 C189.65 -25.09, 189.53 -48.55, 189.36 -79.67 M189.77 -1.63 C189.68 -18.65, 189.59 -35.67, 189.36 -79.67 M189.36 -79.67 C246.06 -79.8, 302.76 -79.93, 343.48 -80.02 M189.36 -79.67 C243.22 -79.79, 297.08 -79.92, 343.48 -80.02" stroke="#000000" stroke-width="1" fill="none"></path></g></g><g stroke-linecap="round"><g transform="translate(671.4066380092074 105.73570687430231) rotate(0 0.29070172991066556 11.04583740234375)"><path d="M0 0 C0.22 8.47, 0.45 16.95, 0.58 22.09 M0 0 C0.21 8.04, 0.42 16.07, 0.58 22.09" stroke="#000000" stroke-width="1" fill="none"></path></g></g><g stroke-linecap="round"><g transform="translate(680.3576180594307 631.4345376150948) rotate(0 -26.558053152901834 -271.994138445173)"><path d="M0 0 C-19.22 -0.43, -38.43 -0.87, -63.66 -1.44 M0 0 C-13.37 -0.3, -26.73 -0.6, -63.66 -1.44 M-63.66 -1.44 C-61.64 -170.32, -59.62 -339.2, -57.18 -543.99 M-63.66 -1.44 C-62.27 -117.93, -60.88 -234.43, -57.18 -543.99 M-57.18 -543.99 C-30.67 -543.65, -4.16 -543.32, 10.54 -543.13 M-57.18 -543.99 C-35.83 -543.72, -14.48 -543.45, 10.54 -543.13" stroke="#000000" stroke-width="1" fill="none"></path></g></g><g stroke-linecap="round"><g transform="translate(366.8572518484933 182.7993709019251) rotate(0 0 14.94354248046875)"><path d="M0 0 C0 10.44, 0 20.89, 0 29.89 M0 0 C0 9.18, 0 18.36, 0 29.89" stroke="#000000" stroke-width="1" fill="none"></path></g></g><g stroke-linecap="round"><g transform="translate(661.1588352748325 630.8792920793804) rotate(0 8.720441545758888 -8.1390380859375)"><path d="M0 0 C5.74 -5.36, 11.48 -10.72, 17.44 -16.28 M0 0 C6.52 -6.08, 13.03 -12.16, 17.44 -16.28" stroke="#000000" stroke-width="1" fill="none"></path></g></g><g stroke-linecap="round"><g transform="translate(659.6208365304128 631.1505497523715) rotate(0 9.43825857979914 9.7113037109375)"><path d="M0 0 C5.94 6.11, 11.87 12.21, 18.88 19.42 M0 0 C3.85 3.96, 7.7 7.92, 18.88 19.42" stroke="#000000" stroke-width="1" fill="none"></path></g></g><g stroke-linecap="round" transform="translate(640.9854954310825 620.6593911307198) rotate(0 9.883161272321388 10.4644775390625)"><path d="M16.24 2.45 C17.86 3.89, 19.25 6.44, 19.62 8.65 C19.98 10.86, 19.5 13.75, 18.44 15.7 C17.38 17.64, 15.25 19.53, 13.26 20.3 C11.27 21.06, 8.49 21.06, 6.5 20.3 C4.51 19.53, 2.38 17.64, 1.32 15.7 C0.27 13.75, -0.22 10.86, 0.15 8.65 C0.52 6.44, 1.91 3.89, 3.53 2.45 C5.15 1.01, 7.77 0, 9.88 0 C12 0, 14.61 1.01, 16.24 2.45" stroke="#000000" stroke-width="1" fill="none"></path></g><g stroke-linecap="round"><g transform="translate(682.4676949637277 107.11258152553006) rotate(0 0 9.616180419921875)"><path d="M0 0 C0 3.21, 0 16.03, 0 19.23 M0 0 C0 3.21, 0 16.03, 0 19.23" stroke="#000000" stroke-width="1" fill="none"></path></g></g><g stroke-linecap="round"><g transform="translate(357.2777404785156 184.62759617396756) rotate(0 -0.4376373291015625 14.033432006835938)"><path d="M0 0 C-0.15 4.68, -0.73 23.39, -0.88 28.07 M0 0 C-0.15 4.68, -0.73 23.39, -0.88 28.07" stroke="#000000" stroke-width="1" fill="none"></path></g></g><g stroke-linecap="round"><g transform="translate(641.2571411132815 1137.5636008126396) rotate(0 -141.62542724609375 -44.2979736328125)"><path d="M0 0 C-61.08 0.68, -122.15 1.36, -163.48 1.82 M0 0 C-39 0.43, -78.01 0.87, -163.48 1.82 M-163.48 1.82 C-163.46 -20.35, -163.44 -42.51, -163.4 -89.1 M-163.48 1.82 C-163.46 -28.41, -163.43 -58.64, -163.4 -89.1 M-163.4 -89.1 C-206.84 -89.57, -250.28 -90.05, -283.25 -90.41 M-163.4 -89.1 C-196.66 -89.46, -229.91 -89.83, -283.25 -90.41" stroke="#000000" stroke-width="1" fill="none"></path></g></g><g stroke-linecap="round"><g transform="translate(680.4666384742374 101.2626643105157) rotate(0 0.5661519368489962 -15.056941320025729)"><path d="M0 0 C0.32 -8.59, 0.65 -17.18, 1.13 -30.11 M0 0 C0.27 -7.09, 0.53 -14.17, 1.13 -30.11" stroke="#000000" stroke-width="1" fill="none"></path></g></g><g stroke-linecap="round"><g transform="translate(640.876892089844 1116.300539289202) rotate(0 -9.10662841796875 21.3780517578125)"><path d="M0 0 C-4.94 4.75, -9.87 9.5, -21.78 20.95 M0 0 C-4.76 4.58, -9.53 9.16, -21.78 20.95 M-21.78 20.95 C-13.59 27.99, -5.41 35.03, 3.57 42.76 M-21.78 20.95 C-13.21 28.33, -4.63 35.7, 3.57 42.76" stroke="#000000" stroke-width="1" fill="none"></path></g></g><g stroke-linecap="round"><g transform="translate(368.312438964844 1031.383547101702) rotate(0 0.39434814453125 17.88275146484375)"><path d="M0 0 C0.23 10.34, 0.46 20.67, 0.79 35.77 M0 0 C0.27 12.15, 0.54 24.3, 0.79 35.77" stroke="#000000" stroke-width="1" fill="none"></path></g></g><g stroke-linecap="round" transform="translate(595.6900024414065 1121.658449445452) rotate(0 10.70281982421875 13.383056640625)"><path d="M17.58 3.13 C19.34 4.97, 20.84 8.24, 21.24 11.06 C21.64 13.88, 21.12 17.59, 19.97 20.07 C18.83 22.56, 16.52 24.98, 14.36 25.96 C12.21 26.94, 9.2 26.94, 7.04 25.96 C4.89 24.98, 2.58 22.56, 1.43 20.07 C0.29 17.59, -0.24 13.88, 0.16 11.06 C0.56 8.24, 2.07 4.97, 3.82 3.13 C5.58 1.29, 8.41 0, 10.7 0 C13 0, 15.83 1.29, 17.58 3.13" stroke="#000000" stroke-width="1" fill="none"></path></g><g stroke-linecap="round"><g transform="translate(668.1913887129496 71.768775601247) rotate(0 0.5026963177848529 15.293632956112106)"><path d="M0 0 C0.17 5.1, 0.84 25.49, 1.01 30.59 M0 0 C0.17 5.1, 0.84 25.49, 1.01 30.59" stroke="#000000" stroke-width="1" fill="none"></path></g></g><g stroke-linecap="round"><g transform="translate(678.9510192871093 606.8988407679965) rotate(0 -81.16777692522322 219.6496146065848)"><path d="M0 0 C-51.24 0.49, -102.48 0.99, -161.49 1.56 M0 0 C-32.77 0.32, -65.54 0.63, -161.49 1.56 M-161.49 1.56 C-161.76 139.59, -162.02 277.63, -162.34 439.3 M-161.49 1.56 C-161.81 168.55, -162.13 335.54, -162.34 439.3 M-162.34 439.3 C-135.29 439.17, -108.25 439.04, -39.43 438.72 M-162.34 439.3 C-129.11 439.14, -95.89 438.98, -39.43 438.72" stroke="#000000" stroke-width="1" fill="none"></path></g></g><g stroke-linecap="round" transform="translate(642.3273097446986 598.9674965994698) rotate(0 9.88311767578125 9.3017578125)"><path d="M16.24 2.18 C17.86 3.46, 19.25 5.72, 19.62 7.69 C19.98 9.65, 19.5 12.23, 18.44 13.95 C17.38 15.68, 15.25 17.36, 13.26 18.04 C11.27 18.72, 8.49 18.72, 6.5 18.04 C4.51 17.36, 2.38 15.68, 1.32 13.95 C0.27 12.23, -0.22 9.65, 0.15 7.69 C0.52 5.72, 1.91 3.46, 3.53 2.18 C5.15 0.9, 7.77 0, 9.88 0 C12 0, 14.61 0.9, 16.24 2.18" stroke="#000000" stroke-width="1" fill="none"></path></g><g stroke-linecap="round"><g transform="translate(661.6265389578682 607.8728746686661) rotate(0 9.147600446428555 -8.548583984375)"><path d="M0 0 C5 -4.67, 10 -9.34, 18.3 -17.1 M0 0 C5.88 -5.49, 11.75 -10.99, 18.3 -17.1" stroke="#000000" stroke-width="1" fill="none"></path></g></g><g stroke-linecap="round"><g transform="translate(663.0325273786272 607.3698577880858) rotate(0 7.266976492745528 6.104256766183028)"><path d="M0 0 C4.75 3.99, 9.5 7.98, 14.53 12.21 M0 0 C5.51 4.63, 11.03 9.26, 14.53 12.21" stroke="#000000" stroke-width="1" fill="none"></path></g></g><g stroke-linecap="round"><g transform="translate(614.2400683532632 1027.2800399214289) rotate(0 0.202789306640625 19.970054626464844)"><path d="M0 0 C0.07 6.66, 0.34 33.28, 0.41 39.94 M0 0 C0.07 6.66, 0.34 33.28, 0.41 39.94" stroke="#000000" stroke-width="1" fill="none"></path></g></g><g stroke-linecap="round"><g transform="translate(630.6264819274819 1029.3154097944757) rotate(0 0.25390625 17.7703857421875)"><path d="M0 0 C0.08 5.92, 0.42 29.62, 0.51 35.54 M0 0 C0.08 5.92, 0.42 29.62, 0.51 35.54" stroke="#000000" stroke-width="1" fill="none"></path></g></g></svg>