<svg version="1.1" xmlns="http://www.w3.org/2000/svg" viewBox="0 0 1234.6828279568163 2501.0095277816536" width="2469.3656559136325" height="5002.019055563307">
  <!-- svg-source:excalidraw -->
  
  <defs>
    <style>
      @font-face {
        font-family: "Virgil";
        src: url("https://excalidraw.com/Virgil.woff2");
      }
      @font-face {
        font-family: "Cascadia";
        src: url("https://excalidraw.com/Cascadia.woff2");
      }
    </style>
  </defs>
  <rect x="0" y="0" width="1234.6828279568163" height="2501.0095277816536" fill="#ffffff"></rect><g stroke-linecap="round" transform="translate(679.3996452504698 47.938913012308035) rotate(0 260.83302815755223 361.7208760579428)"><path d="M-0.6 0.12 C198.14 -0.19, 395.8 0.99, 521.83 -0.41 M0.28 0.18 C167.08 0.59, 334.5 0.88, 521.45 -0.06 M521.91 0.43 C521.6 200.05, 521.79 401.73, 521.05 723.18 M521.95 -0.31 C518.79 280.14, 518.91 560.43, 521.6 723.36 M521.79 722.67 C413.11 725.69, 305.36 726.01, -0.05 723.97 M521.71 723.18 C381.23 722.19, 240.63 722.65, 0.27 723.08 M-0.58 723.89 C2.59 443.6, 1.57 163.75, -0.23 -0.67 M-0.26 723.7 C-0.06 456.47, 0.04 189.1, -0.09 -0.23" stroke="#000000" stroke-width="1" fill="none"></path></g><g stroke-linecap="round" transform="translate(691.2536724082074 967.9929087805374) rotate(0 266.66099911644346 330.9113566080729)"><path d="M0.48 -0.56 C150.87 0.3, 300.95 -0.72, 533.49 -0.52 M-0.06 -0.11 C142.24 -0.78, 283.84 -1.01, 533.23 0.01 M533.19 -0.77 C534.18 239.36, 533.51 478.28, 534.02 661.1 M533.05 -0.01 C535.07 220.06, 535.15 439.77, 532.95 661.9 M532.99 662.06 C322.14 660.33, 110.64 660.29, -0.25 662.24 M533.4 661.55 C398.46 660.61, 263.87 660.06, 0.35 661.51 M0.35 661.89 C1.23 453.19, 1.68 243.64, 0.56 -0.03 M-0.18 662.12 C1.67 500.02, 1.65 337.61, -0.38 0.18" stroke="#000000" stroke-width="1" fill="none"></path></g><g stroke-linecap="round"><g transform="translate(31.697175651787802 143.95833236452177) rotate(0 267.21458154071587 0.8232435643672886)"><path d="M0.72 -0.84 C90 -0.46, 445.86 2.19, 534.79 2.49 M-0.36 1.33 C88.9 1.38, 445.21 0.75, 534.22 0.85" stroke="#000000" stroke-width="1" fill="none"></path></g></g><g stroke-linecap="round"><g transform="translate(678.7738721384876 155.42764185345402) rotate(0 261.86666499177625 -3.5716939879627887)"><path d="M-0.84 0.71 C86.56 -0.39, 437.26 -4.76, 524.57 -5.86 M0.92 0.04 C88.23 -1.51, 437.27 -7.11, 524.11 -7.85" stroke="#000000" stroke-width="1" fill="none"></path></g></g><g stroke-linecap="round"><g transform="translate(32.55200062621134 1054.7600451272638) rotate(0 264.7553523493039 -0.6485120017928807)"><path d="M0.71 0.92 C88.91 0.69, 441.69 -1.67, 529.89 -2.22 M-0.38 0.36 C87.62 0.35, 440.8 -0.7, 529.07 -1" stroke="#000000" stroke-width="1" fill="none"></path></g></g><g stroke-linecap="round"><g transform="translate(692.5420460530313 1044.4450786693135) rotate(0 266.03831506494964 2.3478446159533064)"><path d="M0.92 0.24 C89.35 1.02, 441.64 4.62, 529.75 5.37 M-0.06 -0.67 C88.85 -0.34, 443.45 2.29, 532.13 3.38" stroke="#000000" stroke-width="1" fill="none"></path></g></g><g stroke-linecap="round" transform="translate(99.13635121215066 183.92254396468923) rotate(0 84.84030587332586 79.20015607561385)"><path d="M-1.03 0.41 C59.65 -1.02, 123.3 0.55, 169.37 -0.57 M-0.15 -0.22 C59.82 1.55, 119.9 1.47, 169.52 -0.96 M169.03 1.74 C168.06 49.2, 171.3 95.53, 168.31 158.35 M169.48 -0.93 C170.41 42.43, 170.36 81.98, 169.26 158.7 M171 157.79 C116.94 157.36, 62.32 156.99, 0.4 157.06 M168.77 159.27 C118.1 159.7, 67.34 160.11, 0.43 158.48 M-1.67 159.79 C-0.32 123.18, -1.56 91.46, -0.88 1.47 M-0.56 157.45 C-0.31 114.4, -0.59 69.75, -0.45 -0.39" stroke="#000000" stroke-width="1" fill="none"></path></g><g stroke-linecap="round" transform="translate(307.74418289462847 185.00522044348384) rotate(0 84.9116952078682 79.01700701032365)"><path d="M0.41 -1.3 C63.28 2.28, 128.8 0.56, 169.26 1.05 M-0.22 0.02 C58.9 0.56, 117.09 0.09, 168.86 0.07 M171.57 -1.8 C169.25 50.66, 167.04 97.07, 169.77 157.27 M168.9 0.2 C170.51 52.77, 168.58 104.79, 170.12 158.2 M169.21 159.08 C105.99 159.38, 42.72 159.55, -1.34 158.02 M170.69 157.26 C110.85 155.76, 52.12 156.91, 0.08 157.19 M1.39 157.96 C-0.66 106.89, 1.73 57.5, 1.47 -0.36 M-0.95 158.49 C1.04 103.2, 1.07 47.56, -0.39 0.31" stroke="#000000" stroke-width="1" fill="none"></path></g><g stroke-linecap="round" transform="translate(100.01905036114567 370.46747455899725) rotate(0 87.65797206333718 85.8410208565848)"><path d="M0 0 C56.16 0, 112.32 0, 175.32 0 M0 0 C42.94 0, 85.87 0, 175.32 0 M175.32 0 C175.32 38.31, 175.32 76.61, 175.32 171.68 M175.32 0 C175.32 48.5, 175.32 97, 175.32 171.68 M175.32 171.68 C123.76 171.68, 72.2 171.68, 0 171.68 M175.32 171.68 C110.88 171.68, 46.44 171.68, 0 171.68 M0 171.68 C0 125.02, 0 78.35, 0 0 M0 171.68 C0 123.97, 0 76.26, 0 0" stroke="#000000" stroke-width="1" fill="none"></path></g><g stroke-linecap="round" transform="translate(312.03669824061035 384.7077176533053) rotate(0 83.41236659458718 80.6816101074219)"><path d="M0 0 C41.45 0, 82.91 0, 166.82 0 M0 0 C47.55 0, 95.09 0, 166.82 0 M166.82 0 C166.82 43.18, 166.82 86.35, 166.82 161.36 M166.82 0 C166.82 45.17, 166.82 90.33, 166.82 161.36 M166.82 161.36 C105.79 161.36, 44.76 161.36, 0 161.36 M166.82 161.36 C132.04 161.36, 97.26 161.36, 0 161.36 M0 161.36 C0 126.45, 0 91.53, 0 0 M0 161.36 C0 122.03, 0 82.7, 0 0" stroke="#000000" stroke-width="1" fill="none"></path></g><g transform="translate(140.29898374563254 257.2669043162517) rotate(0 40.5 11.5)"><text x="0" y="18" font-family="Helvetica, Segoe UI Emoji" font-size="20px" fill="#000000" text-anchor="start" style="white-space: pre;" direction="ltr">Category</text></g><g stroke-linecap="round" transform="translate(722.5720492218225 189.44462997194364) rotate(0 218.50565592447947 56.441828409830734)"><path d="M0.45 -0.16 C102.35 -1.02, 205.7 -2.11, 436.86 -0.23 M0.27 -0.08 C131.67 -0.64, 264.36 -1.06, 436.85 0.44 M435.44 -1.38 C437.32 22.95, 438.03 47.07, 436.61 111.03 M436.05 -0.42 C438.4 36.34, 438.8 72.28, 437.67 112.58 M436.35 113.08 C282.31 113.13, 129.46 113.82, -0.92 113.76 M437.3 113.1 C339.88 110.87, 242.74 111.15, -0.42 113.23 M1.28 112.01 C2.09 79.1, 1.59 45.59, -1.13 -1.91 M0.72 112.43 C-1.16 74.21, -0.99 34.42, -0.87 -0.05" stroke="#000000" stroke-width="1" fill="none"></path></g><g stroke-linecap="round" transform="translate(726.6330669394565 333.3382224431118) rotate(0 217.00358072916697 58.161163330078125)"><path d="M-0.16 -0.29 C116.12 -0.55, 230.6 -1.14, 433.78 0.02 M-0.08 -0.49 C156.94 -1.12, 313.42 -1.34, 434.45 -0.46 M432.63 -0.05 C434.08 39.31, 434.49 76.91, 432.16 116.73 M433.59 0.3 C434.36 46.79, 434.13 92.84, 433.7 116.85 M434.21 115.64 C324.25 115.36, 215.2 113.94, 0.89 115.53 M434.23 116.37 C296.68 117.65, 160.07 117.14, 0.35 116.3 M-0.88 117.79 C0.41 88.81, 0.32 58.25, -1.91 0.91 M-0.45 115.93 C0.1 73.21, -0.71 29.65, -0.05 0.45" stroke="#000000" stroke-width="1" fill="none"></path></g><g transform="translate(764.8123446319796 231.86990259564152) rotate(0 44 12.5)"><text x="0" y="18" font-family="Virgil, Segoe UI Emoji" font-size="20px" fill="#000000" text-anchor="start" style="white-space: pre;" direction="ltr">Products</text></g><g stroke-linecap="round"><g transform="translate(852.0725781931778 332.91681537930975) rotate(0 0.7452815183569328 57.58032531244548)"><path d="M-0.34 0.63 C-0.12 19.67, 1.59 95.09, 1.83 114.06 M1.68 -0.09 C1.74 19.12, 1.39 95.96, 1.16 115.25" stroke="#000000" stroke-width="1" fill="none"></path></g></g><g transform="translate(741.6319915581325 380.02564978221153) rotate(0 28 11.5)"><text x="0" y="18" font-family="Helvetica, Segoe UI Emoji" font-size="20px" fill="#000000" text-anchor="start" style="white-space: pre;" direction="ltr">Image</text></g><g transform="translate(867.8962040302313 348.1122412303142) rotate(0 43.16018240792437 49.634209769113)"><text x="0" y="15.853683907645198" font-family="Helvetica, Segoe UI Emoji" font-size="17.264072963169752px" fill="#000000" text-anchor="start" style="white-space: pre;" direction="ltr">Title</text><text x="0" y="35.7073678152904" font-family="Helvetica, Segoe UI Emoji" font-size="17.264072963169752px" fill="#000000" text-anchor="start" style="white-space: pre;" direction="ltr"></text><text x="0" y="55.561051722935595" font-family="Helvetica, Segoe UI Emoji" font-size="17.264072963169752px" fill="#000000" text-anchor="start" style="white-space: pre;" direction="ltr">Description</text><text x="0" y="75.4147356305808" font-family="Helvetica, Segoe UI Emoji" font-size="17.264072963169752px" fill="#000000" text-anchor="start" style="white-space: pre;" direction="ltr"></text><text x="0" y="95.268419538226" font-family="Helvetica, Segoe UI Emoji" font-size="17.264072963169752px" fill="#000000" text-anchor="start" style="white-space: pre;" direction="ltr"></text></g><g stroke-linecap="round" transform="translate(94.02585432784872 1083.5737542046447) rotate(0 197.1239013671875 214.29510498046864)"><path d="M-0.17 -0.26 C138.97 1.96, 278.23 1.86, 394.06 -1.11 M-0.19 0.5 C120.32 1.93, 242.09 1.29, 393.85 -0.01 M394.04 -0.96 C395.19 113.21, 395.14 223.43, 393.81 428.9 M394.59 -0.16 C396.08 135.63, 395.87 271.41, 394.35 428.24 M393.19 429.59 C275.3 430.3, 157.32 430.77, 0.5 428.69 M393.77 428.99 C309.33 427.63, 224.07 428.32, -0.25 429.01 M-0.58 427.6 C-0.6 308.4, -0.89 187.53, -0.47 -0.4 M-0.45 428.56 C0.71 287.27, -0.02 145.11, 0.08 0.35" stroke="#000000" stroke-width="1" fill="none"></path></g><g stroke-linecap="round" transform="translate(10.320689009768046 1754.51203022306) rotate(0 265.6913539341517 368.2487487792969)"><path d="M-0.18 0.02 C182.85 0.56, 365.15 0.19, 530.62 0.05 M0.35 -0.36 C165.64 0.98, 330.72 0.41, 531.37 -0.15 M530.64 0.16 C531.64 245.29, 530.1 489.99, 531.62 736.63 M531.26 0.21 C531.02 272.8, 530.95 545.59, 531.11 736.5 M532.08 735.88 C346.48 733.98, 161.78 734.9, 0.07 735.82 M531.66 736.48 C363.61 734.46, 196.53 734.54, 0.29 736.43 M-0.76 736.86 C1.2 480.27, 1.23 223.4, -0.31 0.25 M-0.02 736.68 C1.8 530.72, 1.47 325.77, 0.27 0.19" stroke="#000000" stroke-width="1" fill="none"></path></g><g transform="translate(110.3673721849932 10) rotate(0 147.5 11.5)"><text x="0" y="18" font-family="Helvetica, Segoe UI Emoji" font-size="20px" fill="#000000" text-anchor="start" style="white-space: pre;" direction="ltr">LANDING PAGE / CATEGORIES</text></g><g transform="translate(191.1044370915215 931.3039071219309) rotate(0 27 11.5)"><text x="0" y="18" font-family="Helvetica, Segoe UI Emoji" font-size="20px" fill="#000000" text-anchor="start" style="white-space: pre;" direction="ltr">CART</text></g><g stroke-linecap="round" transform="translate(209.86567773279785 79.27931625124052) rotate(0 71.8593270438057 20.66293988909038)"><path d="M0 0 C43.46 0, 86.92 0, 143.72 0 M0 0 C30.19 0, 60.37 0, 143.72 0 M143.72 0 C143.72 13.24, 143.72 26.48, 143.72 41.33 M143.72 0 C143.72 14.56, 143.72 29.13, 143.72 41.33 M143.72 41.33 C111.76 41.33, 79.8 41.33, 0 41.33 M143.72 41.33 C101.16 41.33, 58.61 41.33, 0 41.33 M0 41.33 C0 27.06, 0 12.79, 0 0 M0 41.33 C0 27.05, 0 12.78, 0 0" stroke="#000000" stroke-width="1" fill="none"></path></g><g stroke-linecap="round" transform="translate(41.31425997331098 80.80859568762446) rotate(0 31.25126429966508 21.418522426060264)"><path d="M0 0 C22.6 0, 45.19 0, 62.5 0 M0 0 C20.77 0, 41.54 0, 62.5 0 M62.5 0 C62.5 16.97, 62.5 33.95, 62.5 42.84 M62.5 0 C62.5 10.83, 62.5 21.66, 62.5 42.84 M62.5 42.84 C42.79 42.84, 23.07 42.84, 0 42.84 M62.5 42.84 C47.2 42.84, 31.91 42.84, 0 42.84 M0 42.84 C0 27.04, 0 11.24, 0 0 M0 42.84 C0 26.58, 0 10.33, 0 0" stroke="#000000" stroke-width="1" fill="none"></path></g><g stroke-linecap="round" transform="translate(428.8657801846675 85.52674950493758) rotate(0 28.74136788504461 16.54478890555245)"><path d="M0 0 C18.99 0, 37.98 0, 57.48 0 M0 0 C21.37 0, 42.75 0, 57.48 0 M57.48 0 C57.48 10.46, 57.48 20.91, 57.48 33.09 M57.48 0 C57.48 10.31, 57.48 20.62, 57.48 33.09 M57.48 33.09 C44.38 33.09, 31.27 33.09, 0 33.09 M57.48 33.09 C44.01 33.09, 30.55 33.09, 0 33.09 M0 33.09 C0 22.59, 0 12.08, 0 0 M0 33.09 C0 26.29, 0 19.5, 0 0" stroke="#000000" stroke-width="1" fill="none"></path></g><g stroke-linecap="round" transform="translate(495.9084633773291 85.98551044766907) rotate(0 27.72173200334828 15.959712437220986)"><path d="M0 0 C19.58 0, 39.16 0, 55.44 0 M0 0 C12.28 0, 24.55 0, 55.44 0 M55.44 0 C55.44 6.5, 55.44 13, 55.44 31.92 M55.44 0 C55.44 7.48, 55.44 14.96, 55.44 31.92 M55.44 31.92 C35.68 31.92, 15.92 31.92, 0 31.92 M55.44 31.92 C35.26 31.92, 15.07 31.92, 0 31.92 M0 31.92 C0 20.05, 0 8.17, 0 0 M0 31.92 C0 22.46, 0 13.01, 0 0" stroke="#000000" stroke-width="1" fill="none"></path></g><g transform="translate(46.109356234472216 94.38883511982317) rotate(0 24 9)"><text x="0" y="14" font-family="Helvetica, Segoe UI Emoji" font-size="16px" fill="#000000" text-anchor="start" style="white-space: pre;" direction="ltr">HOME</text></g><g transform="translate(232.76238445015315 92.32055312868192) rotate(0 52 9)"><text x="0" y="14" font-family="Helvetica, Segoe UI Emoji" font-size="16px" fill="#000000" text-anchor="start" style="white-space: pre;" direction="ltr">SEARCH BAR</text></g><g transform="translate(871.8841873705387 917.3888554648754) rotate(0 61 11.5)"><text x="0" y="18" font-family="Helvetica, Segoe UI Emoji" font-size="20px" fill="#000000" text-anchor="start" style="white-space: pre;" direction="ltr">LOGIN PAGE</text></g><g stroke-linecap="round"><g transform="translate(10.389131218194905 1855.0199894980788) rotate(0 265.701427317607 -1.1491903900401894)"><path d="M-0.39 1.05 C87.86 0.96, 440.98 -0.79, 529.65 -1.43 M1.61 0.55 C90.2 0.18, 443.51 -2.93, 531.79 -3.35" stroke="#000000" stroke-width="1" fill="none"></path></g></g><g stroke-linecap="round" transform="translate(67.88238683342934 1914.1059575156569) rotate(0 205.7693481445313 31.458724975585938)"><path d="M-0.98 0.35 C92.61 -2.83, 182.9 -1.99, 411.12 0.36 M0.11 0.53 C116.34 1.56, 232.28 2.25, 411.63 0.39 M412.59 -0.94 C412.18 17.19, 412.35 35.67, 411.53 63.88 M410.76 0.15 C410.24 23.69, 411.39 46.34, 410.69 63.07 M411.5 62.31 C298.96 65.18, 187.33 65.28, -0.2 63.44 M411.79 63.29 C297.26 61.16, 182.55 60.56, 0.17 62.8 M0.91 64.51 C-1.34 47.13, 0.88 32.86, 0.94 -0.08 M0.31 63.68 C1.45 46.77, 0.66 30.8, -0.53 -0.86" stroke="#000000" stroke-width="1" fill="none"></path></g><g stroke-linecap="round" transform="translate(71.24099889397621 2004.293961055696) rotate(0 202.59707641601562 107.35905456542969)"><path d="M0.36 0.8 C107.54 1.27, 216.81 1.61, 405.56 -0.2 M0.54 0.09 C112.88 -0.7, 227 -0.37, 405.59 -0.03 M404.37 0.2 C403.47 78.9, 403.45 157.09, 406.04 215.9 M405.33 -0.63 C407.32 45.14, 406.9 88.79, 405.33 214.47 M404.58 213.99 C318.23 214.14, 230.66 214.43, 0.54 214.47 M405.58 214.82 C306.83 215.49, 207.45 215.91, -0.12 214.44 M1.39 213.06 C0.03 169.35, 1.28 124.24, -0.07 -0.67 M0.67 215.51 C0.84 169.01, 1.27 122.62, -0.75 -0.65" stroke="#000000" stroke-width="1" fill="none"></path></g><g transform="translate(881.4992615981334 1707.3107122996507) rotate(0 85.2762945723764 12.3355646236771)"><text x="0" y="19.671129247354198" font-family="Helvetica, Segoe UI Emoji" font-size="21.453155867264503px" fill="#000000" text-anchor="start" style="white-space: pre;" direction="ltr">USER ACCOUNT</text></g><g stroke-linecap="round" transform="translate(781.3027718868173 1934.486899801435) rotate(0 181.61486833899812 221.08733393840976)"><path d="M0 0 C120.7 0, 241.4 0, 363.23 0 M0 0 C143.92 0, 287.84 0, 363.23 0 M363.23 0 C363.23 111.81, 363.23 223.63, 363.23 442.17 M363.23 0 C363.23 139.47, 363.23 278.95, 363.23 442.17 M363.23 442.17 C274.32 442.17, 185.42 442.17, 0 442.17 M363.23 442.17 C229.27 442.17, 95.32 442.17, 0 442.17 M0 442.17 C0 274.4, 0 106.62, 0 0 M0 442.17 C0 275.79, 0 109.4, 0 0" stroke="#000000" stroke-width="1" fill="none"></path></g><g transform="translate(894.6869879842845 2027.077690216388) rotate(0 108.33843712968587 49.3422584947084)"><text x="0" y="19.671129247354198" font-family="Helvetica, Segoe UI Emoji" font-size="21.453155867264513px" fill="#000000" text-anchor="start" style="white-space: pre;" direction="ltr">user details:</text><text x="0" y="44.342258494708396" font-family="Helvetica, Segoe UI Emoji" font-size="21.453155867264513px" fill="#000000" text-anchor="start" style="white-space: pre;" direction="ltr"></text><text x="0" y="69.01338774206259" font-family="Helvetica, Segoe UI Emoji" font-size="21.453155867264513px" fill="#000000" text-anchor="start" style="white-space: pre;" direction="ltr">name: fauehfguah</text><text x="0" y="93.68451698941679" font-family="Helvetica, Segoe UI Emoji" font-size="21.453155867264513px" fill="#000000" text-anchor="start" style="white-space: pre;" direction="ltr">admin: F no / hell yeah</text></g><g stroke-linecap="round" transform="translate(815.8816849291325 1153.6543278769848) rotate(0 137.12745666503906 56.16600036621094)"><path d="M-0.59 0.51 C60.46 -0.26, 120.02 0.37, 275.75 0.25 M0.13 0.55 C55.81 -0.12, 111.47 -0.23, 273.89 0.09 M274.24 0.96 C275.83 24.49, 276.22 51.09, 274.56 110.89 M273.41 0.15 C274.46 39.2, 275.43 80.03, 273.7 111.68 M273.98 113.08 C174.06 113.02, 73.08 114.6, 1.07 112.6 M274.49 112.17 C171.85 110.83, 70.19 111.86, 0.62 111.6 M0.94 112.26 C-0.95 77.32, -0.79 46.4, 1.53 1.8 M-0.53 111.47 C-0.88 75.3, -1.06 38.16, 0.33 0.6" stroke="#000000" stroke-width="1" fill="none"></path></g><g stroke-linecap="round" transform="translate(114.78961339592934 85.55121878972193) rotate(0 31.08673095703125 20.08506774902341)"><path d="M0 0 C18.49 0, 36.99 0, 62.17 0 M0 0 C20.51 0, 41.02 0, 62.17 0 M62.17 0 C62.17 9.36, 62.17 18.72, 62.17 40.17 M62.17 0 C62.17 12.39, 62.17 24.78, 62.17 40.17 M62.17 40.17 C38.96 40.17, 15.75 40.17, 0 40.17 M62.17 40.17 C45.93 40.17, 29.69 40.17, 0 40.17 M0 40.17 C0 25.4, 0 10.63, 0 0 M0 40.17 C0 24.9, 0 9.63, 0 0" stroke="#000000" stroke-width="1" fill="none"></path></g><g transform="translate(118.14773717522621 93.25605822366447) rotate(0 22.5 9)"><text x="22.5" y="14" font-family="Helvetica, Segoe UI Emoji" font-size="16px" fill="#000000" text-anchor="middle" style="white-space: pre;" direction="ltr">Admin</text></g><g transform="translate(502.71121519094504 92.12950981987899) rotate(0 22 9)"><text x="22" y="14" font-family="Helvetica, Segoe UI Emoji" font-size="16px" fill="#000000" text-anchor="middle" style="white-space: pre;" direction="ltr">admin</text></g><g transform="translate(451.9910504832169 91.7342581370525) rotate(0 3 11.5)"><text x="3" y="18" font-family="Helvetica, Segoe UI Emoji" font-size="20px" fill="#000000" text-anchor="middle" style="white-space: pre;" direction="ltr"></text></g><g transform="translate(432.8278620938472 91.97285001240118) rotate(0 23.5 9)"><text x="0" y="14.000000000000007" font-family="Helvetica, Segoe UI Emoji" font-size="15.999999999999988px" fill="#000000" text-anchor="start" style="white-space: pre;" direction="ltr">basket</text></g><g transform="translate(375.23317040858 91.85971699063793) rotate(0 17 9)"><text x="0" y="14" font-family="Helvetica, Segoe UI Emoji" font-size="16px" fill="#000000" text-anchor="start" style="white-space: pre;" direction="ltr">login</text></g><g stroke-linecap="round" transform="translate(368.38336920880283 84.15319582015798) rotate(0 24.99847412109375 17.731454031808028)"><path d="M0 0 C16.02 0, 32.04 0, 50 0 M0 0 C17.62 0, 35.24 0, 50 0 M50 0 C50 7.89, 50 15.77, 50 35.46 M50 0 C50 10.5, 50 21, 50 35.46 M50 35.46 C32.73 35.46, 15.47 35.46, 0 35.46 M50 35.46 C32.73 35.46, 15.46 35.46, 0 35.46 M0 35.46 C0 23.73, 0 11.99, 0 0 M0 35.46 C0 23.94, 0 12.42, 0 0" stroke="#000000" stroke-width="1" fill="none"></path></g><g stroke-linecap="round" transform="translate(726.6822380239064 483.3205421084444) rotate(0 217.00358072916697 58.161163330078125)"><path d="M-0.43 0.3 C172.14 2.85, 343.87 2.8, 433.69 0.53 M0.1 -0.34 C109.74 1.7, 219.84 0.99, 434.45 -0.4 M434.87 0.17 C431.48 37, 432.61 71.71, 435.4 116.24 M433.57 0.73 C433.06 28.95, 433.02 56.38, 433.05 116.78 M433.54 115.93 C274.26 117.7, 113.38 117.02, -0.05 116.78 M434.09 116.67 C269.57 116.22, 104.46 115.8, -0.15 116.48 M0.24 117.93 C-2.11 70.83, -2.54 29.15, -1.85 0.5 M0.97 117.03 C-1.69 77.7, -0.83 39.35, -0.38 -0.24" stroke="#000000" stroke-width="1" fill="none"></path></g><g stroke-linecap="round"><g transform="translate(852.7031527374493 483.4804513113834) rotate(0 0.5060450681615976 57.53144265601745)"><path d="M-0.51 0.36 C-0.28 19.81, 1.23 96.37, 1.52 115.56 M1.43 -0.5 C1.49 18.72, 0.84 94.87, 0.68 113.88" stroke="#000000" stroke-width="1" fill="none"></path></g></g><g transform="translate(742.2625661024049 530.5892857142852) rotate(0 28 11.5)"><text x="0" y="18" font-family="Helvetica, Segoe UI Emoji" font-size="20px" fill="#000000" text-anchor="start" style="white-space: pre;" direction="ltr">Image</text></g><g stroke-linecap="round" transform="translate(730.6822380239064 627.3205421084444) rotate(0 217.00358072916697 58.161163330078125)"><path d="M0.72 -0.06 C112.59 -0.69, 224.37 -0.86, 434.12 -0.67 M0.25 0.34 C138.36 0.46, 277.26 0.09, 433.64 0.29 M434.31 -0.56 C432.43 41.3, 434.03 78.72, 432.69 117.6 M434.49 -0.22 C434.3 28.84, 435.31 60.28, 434.18 117.04 M433.79 115.81 C322.64 116.95, 213.52 117.81, -0.96 116.28 M433.99 116.13 C296.29 117.21, 159.62 117.75, 0.46 116.48 M-1.72 114.83 C-0.57 78.18, -0.44 44.4, 1.21 1.42 M0.11 116.19 C-0.32 69.78, -1.06 24.78, 0.57 -0.14" stroke="#000000" stroke-width="1" fill="none"></path></g><g stroke-linecap="round"><g transform="translate(856.7031527374493 627.4804513113834) rotate(0 0.9656673669807105 57.27034446133169)"><path d="M0.84 -0.07 C1.13 18.95, 1.92 95.31, 2.1 114.35 M-0.17 -1.15 C0 18.02, 1.29 96.31, 1.57 115.69" stroke="#000000" stroke-width="1" fill="none"></path></g></g><g transform="translate(746.2625661024049 674.5892857142852) rotate(0 28 11.5)"><text x="0" y="18" font-family="Helvetica, Segoe UI Emoji" font-size="20px" fill="#000000" text-anchor="start" style="white-space: pre;" direction="ltr">Image</text></g><g stroke-linecap="round" transform="translate(76.37609585268274 2236.385834466843) rotate(0 170.59707641601562 30.359054565429688)"><path d="M-0.41 0.7 C125.73 -1.34, 251.84 -1.23, 340.3 -0.01 M0.58 -0.52 C118.91 1.6, 237.98 2.36, 341.25 -0.56 M342.58 -0.08 C339.92 17.83, 342.3 37.41, 342.66 60.36 M340.24 0.45 C341.75 21.31, 341.78 41.82, 340.81 61.03 M341.13 61.32 C247.1 57.48, 150.84 58.95, 0.9 61.34 M340.99 60.92 C240.65 59.35, 139.31 58.83, 0.53 60.37 M-1.85 61.22 C1.11 48.94, 1.87 36.69, 1.41 -1.97 M-0.38 60.48 C0.86 42.42, -0.07 23.89, 0.77 0.53" stroke="#000000" stroke-width="1" fill="none"></path></g><g transform="translate(344.8924721663925 255.7191661047562) rotate(0 40.5 11.5)"><text x="0" y="18" font-family="Helvetica, Segoe UI Emoji" font-size="20px" fill="#000000" text-anchor="start" style="white-space: pre;" direction="ltr">Category</text></g><g transform="translate(145.7347573226425 449.212774851966) rotate(0 40.5 11.5)"><text x="0" y="18" font-family="Helvetica, Segoe UI Emoji" font-size="20px" fill="#000000" text-anchor="start" style="white-space: pre;" direction="ltr">Category</text></g><g transform="translate(346.22949086058907 452.4334256611178) rotate(0 40.5 11.5)"><text x="0" y="18" font-family="Helvetica, Segoe UI Emoji" font-size="20px" fill="#000000" text-anchor="start" style="white-space: pre;" direction="ltr">Category</text></g><g stroke-linecap="round" transform="translate(79.56985631585212 2334.480386643182) rotate(0 170.59707641601562 30.359054565429688)"><path d="M-0.87 0.26 C119.36 -0.27, 241.14 0.64, 339.98 1.16 M0.37 0.29 C75.92 1.07, 151.84 1.45, 340.64 0.46 M342.48 -0.88 C342.32 17.62, 341.82 35.51, 340.07 58.81 M341.91 -0.45 C341.22 21.27, 341.4 41.43, 340.32 60.67 M341.14 60.93 C224.26 59.2, 105.48 58.06, -1.15 60.32 M341.4 60.8 C228.8 62.41, 114.77 62.27, 0.12 60.1 M1.42 62.65 C1.21 39.02, 0.01 21.01, 1 -0.77 M-0.14 61.62 C0.3 44.5, -0.04 26.75, 0.17 0.75" stroke="#000000" stroke-width="1" fill="none"></path></g><g transform="translate(176.0742639260643 1934.0284583682103) rotate(0 62.5 11.5)"><text x="0" y="18" font-family="Helvetica, Segoe UI Emoji" font-size="20px" fill="#000000" text-anchor="start" style="white-space: pre;" direction="ltr">Product name</text></g><g transform="translate(220.1719986498365 2103.3617626371833) rotate(0 33.5 11.5)"><text x="0" y="18" font-family="Helvetica, Segoe UI Emoji" font-size="20px" fill="#000000" text-anchor="start" style="white-space: pre;" direction="ltr">[Image]</text></g><g stroke-linecap="round" transform="translate(209.26319098614658 996.0728192405102) rotate(0 71.8593270438057 20.66293988909041)"><path d="M0 0 C33.67 0, 67.35 0, 143.72 0 M0 0 C51.22 0, 102.44 0, 143.72 0 M143.72 0 C143.72 15.05, 143.72 30.09, 143.72 41.33 M143.72 0 C143.72 15.37, 143.72 30.74, 143.72 41.33 M143.72 41.33 C101.15 41.33, 58.57 41.33, 0 41.33 M143.72 41.33 C96.11 41.33, 48.5 41.33, 0 41.33 M0 41.33 C0 26, 0 10.67, 0 0 M0 41.33 C0 29.53, 0 17.73, 0 0" stroke="#000000" stroke-width="1" fill="none"></path></g><g stroke-linecap="round" transform="translate(40.711773226660625 997.6020986768942) rotate(0 31.25126429966508 21.418522426060235)"><path d="M0 0 C19.99 0, 39.99 0, 62.5 0 M0 0 C21.45 0, 42.89 0, 62.5 0 M62.5 0 C62.5 10.97, 62.5 21.95, 62.5 42.84 M62.5 0 C62.5 10.9, 62.5 21.81, 62.5 42.84 M62.5 42.84 C42.73 42.84, 22.96 42.84, 0 42.84 M62.5 42.84 C43 42.84, 23.5 42.84, 0 42.84 M0 42.84 C0 25.84, 0 8.84, 0 0 M0 42.84 C0 26.13, 0 9.42, 0 0" stroke="#000000" stroke-width="1" fill="none"></path></g><g stroke-linecap="round" transform="translate(428.26329343801535 1002.3202524942071) rotate(0 28.74136788504461 16.54478890555248)"><path d="M0 0 C13.4 0, 26.79 0, 57.48 0 M0 0 C17.73 0, 35.45 0, 57.48 0 M57.48 0 C57.48 12.35, 57.48 24.7, 57.48 33.09 M57.48 0 C57.48 8.64, 57.48 17.29, 57.48 33.09 M57.48 33.09 C36.34 33.09, 15.21 33.09, 0 33.09 M57.48 33.09 C35.63 33.09, 13.77 33.09, 0 33.09 M0 33.09 C0 20.83, 0 8.56, 0 0 M0 33.09 C0 20.6, 0 8.11, 0 0" stroke="#000000" stroke-width="1" fill="none"></path></g><g stroke-linecap="round" transform="translate(495.305976630676 1002.7790134369388) rotate(0 27.72173200334828 15.959712437221015)"><path d="M0 0 C16.6 0, 33.2 0, 55.44 0 M0 0 C11.94 0, 23.88 0, 55.44 0 M55.44 0 C55.44 9, 55.44 18.01, 55.44 31.92 M55.44 0 C55.44 10.56, 55.44 21.11, 55.44 31.92 M55.44 31.92 C36.21 31.92, 16.97 31.92, 0 31.92 M55.44 31.92 C41.75 31.92, 28.05 31.92, 0 31.92 M0 31.92 C0 25.49, 0 19.05, 0 0 M0 31.92 C0 20.65, 0 9.39, 0 0" stroke="#000000" stroke-width="1" fill="none"></path></g><g transform="translate(45.50686948782095 1011.1823381090928) rotate(0 24 9)"><text x="0" y="14" font-family="Helvetica, Segoe UI Emoji" font-size="16px" fill="#000000" text-anchor="start" style="white-space: pre;" direction="ltr">HOME</text></g><g transform="translate(232.15989770350188 1009.1140561179516) rotate(0 52 9)"><text x="0" y="14" font-family="Helvetica, Segoe UI Emoji" font-size="16px" fill="#000000" text-anchor="start" style="white-space: pre;" direction="ltr">SEARCH BAR</text></g><g stroke-linecap="round" transform="translate(114.18712664927898 1002.3447217789917) rotate(0 31.08673095703125 20.085067749023438)"><path d="M0 0 C12.96 0, 25.92 0, 62.17 0 M0 0 C13.45 0, 26.91 0, 62.17 0 M62.17 0 C62.17 9.79, 62.17 19.58, 62.17 40.17 M62.17 0 C62.17 8.54, 62.17 17.08, 62.17 40.17 M62.17 40.17 C48.91 40.17, 35.64 40.17, 0 40.17 M62.17 40.17 C42.39 40.17, 22.6 40.17, 0 40.17 M0 40.17 C0 26.12, 0 12.07, 0 0 M0 40.17 C0 27.42, 0 14.68, 0 0" stroke="#000000" stroke-width="1" fill="none"></path></g><g transform="translate(117.54525042857586 1010.0495612129341) rotate(0 22.5 9)"><text x="22.5" y="14" font-family="Helvetica, Segoe UI Emoji" font-size="16px" fill="#000000" text-anchor="middle" style="white-space: pre;" direction="ltr">Admin</text></g><g transform="translate(502.10872844429196 1008.9230128091485) rotate(0 22 9)"><text x="22" y="14" font-family="Helvetica, Segoe UI Emoji" font-size="16px" fill="#000000" text-anchor="middle" style="white-space: pre;" direction="ltr">admin</text></g><g transform="translate(451.3885637365638 1008.5277611263223) rotate(0 3 11.5)"><text x="3" y="18" font-family="Helvetica, Segoe UI Emoji" font-size="20px" fill="#000000" text-anchor="middle" style="white-space: pre;" direction="ltr"></text></g><g transform="translate(432.22537534719504 1008.766353001671) rotate(0 23.5 9)"><text x="0" y="14.000000000000007" font-family="Helvetica, Segoe UI Emoji" font-size="15.999999999999988px" fill="#000000" text-anchor="start" style="white-space: pre;" direction="ltr">basket</text></g><g transform="translate(374.63068366192874 1008.6532199799076) rotate(0 17 9)"><text x="0" y="14" font-family="Helvetica, Segoe UI Emoji" font-size="16px" fill="#000000" text-anchor="start" style="white-space: pre;" direction="ltr">login</text></g><g stroke-linecap="round" transform="translate(367.78088246215157 1000.9466988094277) rotate(0 24.99847412109375 17.731454031808028)"><path d="M0 0 C17.16 0, 34.31 0, 50 0 M0 0 C12.81 0, 25.61 0, 50 0 M50 0 C50 9.03, 50 18.05, 50 35.46 M50 0 C50 11.22, 50 22.43, 50 35.46 M50 35.46 C34.4 35.46, 18.8 35.46, 0 35.46 M50 35.46 C30.16 35.46, 10.32 35.46, 0 35.46 M0 35.46 C0 21.63, 0 7.8, 0 0 M0 35.46 C0 26.08, 0 16.7, 0 0" stroke="#000000" stroke-width="1" fill="none"></path></g><g transform="translate(217.36496565597554 2249.5737028576073) rotate(0 28.5 11.5)"><text x="0" y="18" font-family="Helvetica, Segoe UI Emoji" font-size="20px" fill="#000000" text-anchor="start" style="white-space: pre;" direction="ltr">[Price]</text></g><g stroke-linecap="round" transform="translate(876.122234652441 981.0821489001085) rotate(0 71.8593270438057 20.66293988909041)"><path d="M0 0 C30.95 0, 61.9 0, 143.72 0 M0 0 C40.54 0, 81.09 0, 143.72 0 M143.72 0 C143.72 13.67, 143.72 27.33, 143.72 41.33 M143.72 0 C143.72 14.34, 143.72 28.68, 143.72 41.33 M143.72 41.33 C108.22 41.33, 72.72 41.33, 0 41.33 M143.72 41.33 C114.76 41.33, 85.79 41.33, 0 41.33 M0 41.33 C0 26.74, 0 12.16, 0 0 M0 41.33 C0 25.89, 0 10.45, 0 0" stroke="#000000" stroke-width="1" fill="none"></path></g><g stroke-linecap="round" transform="translate(702.2068729755438 980.9027055407335) rotate(0 31.25126429966508 21.418522426060235)"><path d="M0 0 C19.71 0, 39.42 0, 62.5 0 M0 0 C21.76 0, 43.51 0, 62.5 0 M62.5 0 C62.5 11.95, 62.5 23.89, 62.5 42.84 M62.5 0 C62.5 12.69, 62.5 25.37, 62.5 42.84 M62.5 42.84 C49.14 42.84, 35.77 42.84, 0 42.84 M62.5 42.84 C43.08 42.84, 23.66 42.84, 0 42.84 M0 42.84 C0 28.13, 0 13.43, 0 0 M0 42.84 C0 33.64, 0 24.44, 0 0" stroke="#000000" stroke-width="1" fill="none"></path></g><g stroke-linecap="round" transform="translate(1095.1223371043106 987.3295821538054) rotate(0 28.74136788504461 16.54478890555245)"><path d="M0 0 C15.62 0, 31.25 0, 57.48 0 M0 0 C15.98 0, 31.95 0, 57.48 0 M57.48 0 C57.48 8.26, 57.48 16.52, 57.48 33.09 M57.48 0 C57.48 8.66, 57.48 17.31, 57.48 33.09 M57.48 33.09 C44.52 33.09, 31.55 33.09, 0 33.09 M57.48 33.09 C40.98 33.09, 24.47 33.09, 0 33.09 M0 33.09 C0 24.74, 0 16.4, 0 0 M0 33.09 C0 23.39, 0 13.69, 0 0" stroke="#000000" stroke-width="1" fill="none"></path></g><g stroke-linecap="round" transform="translate(1162.1650202969722 987.7883430965369) rotate(0 27.72173200334828 15.959712437220986)"><path d="M0 0 C12 0, 23.99 0, 55.44 0 M0 0 C13.51 0, 27.03 0, 55.44 0 M55.44 0 C55.44 6.79, 55.44 13.57, 55.44 31.92 M55.44 0 C55.44 6.81, 55.44 13.62, 55.44 31.92 M55.44 31.92 C37.8 31.92, 20.15 31.92, 0 31.92 M55.44 31.92 C36.05 31.92, 16.66 31.92, 0 31.92 M0 31.92 C0 21.79, 0 11.66, 0 0 M0 31.92 C0 24.26, 0 16.6, 0 0" stroke="#000000" stroke-width="1" fill="none"></path></g><g transform="translate(712.3659131541153 996.1916677686909) rotate(0 24 9)"><text x="0" y="14" font-family="Helvetica, Segoe UI Emoji" font-size="16px" fill="#000000" text-anchor="start" style="white-space: pre;" direction="ltr">HOME</text></g><g transform="translate(899.0189413697963 994.1233857775499) rotate(0 52 9)"><text x="0" y="14" font-family="Helvetica, Segoe UI Emoji" font-size="16px" fill="#000000" text-anchor="start" style="white-space: pre;" direction="ltr">SEARCH BAR</text></g><g stroke-linecap="round" transform="translate(775.6822263981621 985.6453286428309) rotate(0 31.08673095703125 20.085067749023438)"><path d="M0 0 C15.22 0, 30.44 0, 62.17 0 M0 0 C22.93 0, 45.86 0, 62.17 0 M62.17 0 C62.17 15.24, 62.17 30.48, 62.17 40.17 M62.17 0 C62.17 15.12, 62.17 30.23, 62.17 40.17 M62.17 40.17 C41.47 40.17, 20.77 40.17, 0 40.17 M62.17 40.17 C38.66 40.17, 15.15 40.17, 0 40.17 M0 40.17 C0 26.66, 0 13.16, 0 0 M0 40.17 C0 28.72, 0 17.26, 0 0" stroke="#000000" stroke-width="1" fill="none"></path></g><g transform="translate(784.4042940948693 995.0588908725324) rotate(0 22.5 9)"><text x="22.5" y="14" font-family="Helvetica, Segoe UI Emoji" font-size="16px" fill="#000000" text-anchor="middle" style="white-space: pre;" direction="ltr">Admin</text></g><g transform="translate(1168.9677721105882 993.9323424687468) rotate(0 22 9)"><text x="22" y="14" font-family="Helvetica, Segoe UI Emoji" font-size="16px" fill="#000000" text-anchor="middle" style="white-space: pre;" direction="ltr">admin</text></g><g transform="translate(1118.24760740286 993.5370907859203) rotate(0 3 11.5)"><text x="3" y="18" font-family="Helvetica, Segoe UI Emoji" font-size="20px" fill="#000000" text-anchor="middle" style="white-space: pre;" direction="ltr"></text></g><g transform="translate(1099.0844190134903 993.775682661269) rotate(0 23.5 9)"><text x="0" y="14.000000000000007" font-family="Helvetica, Segoe UI Emoji" font-size="15.999999999999988px" fill="#000000" text-anchor="start" style="white-space: pre;" direction="ltr">basket</text></g><g transform="translate(1041.489727328224 993.6625496395056) rotate(0 17 9)"><text x="0" y="14" font-family="Helvetica, Segoe UI Emoji" font-size="16px" fill="#000000" text-anchor="start" style="white-space: pre;" direction="ltr">login</text></g><g stroke-linecap="round" transform="translate(1034.639926128446 985.9560284690258) rotate(0 24.99847412109375 17.731454031808028)"><path d="M0 0 C17.4 0, 34.81 0, 50 0 M0 0 C13.94 0, 27.89 0, 50 0 M50 0 C50 10.5, 50 21.01, 50 35.46 M50 0 C50 7.58, 50 15.16, 50 35.46 M50 35.46 C34.46 35.46, 18.93 35.46, 0 35.46 M50 35.46 C32.84 35.46, 15.68 35.46, 0 35.46 M0 35.46 C0 27.85, 0 20.23, 0 0 M0 35.46 C0 28, 0 20.53, 0 0" stroke="#000000" stroke-width="1" fill="none"></path></g><g stroke-linecap="round" transform="translate(854.7237448365913 75.68873372153689) rotate(0 71.8593270438057 20.66293988909038)"><path d="M0 0 C39.94 0, 79.88 0, 143.72 0 M0 0 C35.88 0, 71.76 0, 143.72 0 M143.72 0 C143.72 10.81, 143.72 21.62, 143.72 41.33 M143.72 0 C143.72 9.32, 143.72 18.64, 143.72 41.33 M143.72 41.33 C102.45 41.33, 61.19 41.33, 0 41.33 M143.72 41.33 C107.47 41.33, 71.21 41.33, 0 41.33 M0 41.33 C0 29.21, 0 17.1, 0 0 M0 41.33 C0 25.33, 0 9.33, 0 0" stroke="#000000" stroke-width="1" fill="none"></path></g><g stroke-linecap="round" transform="translate(686.1723270771054 77.21801315792084) rotate(0 31.25126429966508 21.418522426060264)"><path d="M0 0 C15.23 0, 30.47 0, 62.5 0 M0 0 C13.29 0, 26.58 0, 62.5 0 M62.5 0 C62.5 9.14, 62.5 18.28, 62.5 42.84 M62.5 0 C62.5 13.63, 62.5 27.27, 62.5 42.84 M62.5 42.84 C40.64 42.84, 18.78 42.84, 0 42.84 M62.5 42.84 C42.67 42.84, 22.84 42.84, 0 42.84 M0 42.84 C0 32.56, 0 22.28, 0 0 M0 42.84 C0 31.52, 0 20.2, 0 0" stroke="#000000" stroke-width="1" fill="none"></path></g><g stroke-linecap="round" transform="translate(1073.723847288462 81.93616697523385) rotate(0 28.74136788504461 16.54478890555245)"><path d="M0 0 C11.77 0, 23.53 0, 57.48 0 M0 0 C16.95 0, 33.9 0, 57.48 0 M57.48 0 C57.48 8.93, 57.48 17.85, 57.48 33.09 M57.48 0 C57.48 6.87, 57.48 13.74, 57.48 33.09 M57.48 33.09 C42.45 33.09, 27.41 33.09, 0 33.09 M57.48 33.09 C35.95 33.09, 14.42 33.09, 0 33.09 M0 33.09 C0 20.52, 0 7.96, 0 0 M0 33.09 C0 22.6, 0 12.1, 0 0" stroke="#000000" stroke-width="1" fill="none"></path></g><g stroke-linecap="round" transform="translate(1140.7665304811226 82.39492791796545) rotate(0 27.72173200334828 15.959712437220986)"><path d="M0 0 C19.14 0, 38.29 0, 55.44 0 M0 0 C19.15 0, 38.29 0, 55.44 0 M55.44 0 C55.44 10.56, 55.44 21.13, 55.44 31.92 M55.44 0 C55.44 10.37, 55.44 20.74, 55.44 31.92 M55.44 31.92 C40.15 31.92, 24.86 31.92, 0 31.92 M55.44 31.92 C42.71 31.92, 29.98 31.92, 0 31.92 M0 31.92 C0 22.95, 0 13.98, 0 0 M0 31.92 C0 23.15, 0 14.37, 0 0" stroke="#000000" stroke-width="1" fill="none"></path></g><g transform="translate(690.9674233382657 90.79825259011943) rotate(0 24 9)"><text x="0" y="14" font-family="Helvetica, Segoe UI Emoji" font-size="16px" fill="#000000" text-anchor="start" style="white-space: pre;" direction="ltr">HOME</text></g><g transform="translate(877.6204515539466 88.7299705989783) rotate(0 52 9)"><text x="0" y="14" font-family="Helvetica, Segoe UI Emoji" font-size="16px" fill="#000000" text-anchor="start" style="white-space: pre;" direction="ltr">SEARCH BAR</text></g><g stroke-linecap="round" transform="translate(759.6476804997237 81.96063626001819) rotate(0 31.08673095703125 20.08506774902341)"><path d="M0 0 C23.13 0, 46.25 0, 62.17 0 M0 0 C18.42 0, 36.83 0, 62.17 0 M62.17 0 C62.17 13.31, 62.17 26.61, 62.17 40.17 M62.17 0 C62.17 14.9, 62.17 29.8, 62.17 40.17 M62.17 40.17 C44.42 40.17, 26.67 40.17, 0 40.17 M62.17 40.17 C41.46 40.17, 20.75 40.17, 0 40.17 M0 40.17 C0 27.87, 0 15.56, 0 0 M0 40.17 C0 28.83, 0 17.49, 0 0" stroke="#000000" stroke-width="1" fill="none"></path></g><g transform="translate(763.0058042790206 89.66547569396073) rotate(0 22.5 9)"><text x="22.5" y="14" font-family="Helvetica, Segoe UI Emoji" font-size="16px" fill="#000000" text-anchor="middle" style="white-space: pre;" direction="ltr">Admin</text></g><g transform="translate(1147.5692822947385 88.53892729017525) rotate(0 22 9)"><text x="22" y="14" font-family="Helvetica, Segoe UI Emoji" font-size="16px" fill="#000000" text-anchor="middle" style="white-space: pre;" direction="ltr">admin</text></g><g transform="translate(1096.8491175870104 88.14367560734877) rotate(0 3 11.5)"><text x="3" y="18" font-family="Helvetica, Segoe UI Emoji" font-size="20px" fill="#000000" text-anchor="middle" style="white-space: pre;" direction="ltr"></text></g><g transform="translate(1077.6859291976416 88.38226748269756) rotate(0 23.5 9)"><text x="0" y="14.000000000000007" font-family="Helvetica, Segoe UI Emoji" font-size="15.999999999999988px" fill="#000000" text-anchor="start" style="white-space: pre;" direction="ltr">basket</text></g><g transform="translate(1020.0912375123735 88.2691344609342) rotate(0 17 9)"><text x="0" y="14" font-family="Helvetica, Segoe UI Emoji" font-size="16px" fill="#000000" text-anchor="start" style="white-space: pre;" direction="ltr">login</text></g><g stroke-linecap="round" transform="translate(1013.2414363125972 80.56261329045424) rotate(0 24.99847412109375 17.731454031808028)"><path d="M0 0 C10.63 0, 21.26 0, 50 0 M0 0 C10.67 0, 21.34 0, 50 0 M50 0 C50 11.29, 50 22.57, 50 35.46 M50 0 C50 12.4, 50 24.81, 50 35.46 M50 35.46 C34.13 35.46, 18.27 35.46, 0 35.46 M50 35.46 C38 35.46, 26.01 35.46, 0 35.46 M0 35.46 C0 26.09, 0 16.73, 0 0 M0 35.46 C0 22.14, 0 8.82, 0 0" stroke="#000000" stroke-width="1" fill="none"></path></g><g transform="translate(182.03915224142747 2352.2163187662754) rotate(0 68 11.5)"><text x="0" y="18" font-family="Helvetica, Segoe UI Emoji" font-size="20px" fill="#000000" text-anchor="start" style="white-space: pre;" direction="ltr">[Add to Basket]</text></g><g stroke-linecap="round" transform="translate(189.05078864239385 1774.6280516972627) rotate(0 71.8593270438057 20.662939889090353)"><path d="M0 0 C49.63 0, 99.27 0, 143.72 0 M0 0 C47.57 0, 95.13 0, 143.72 0 M143.72 0 C143.72 13.43, 143.72 26.85, 143.72 41.33 M143.72 0 C143.72 11.4, 143.72 22.8, 143.72 41.33 M143.72 41.33 C110.72 41.33, 77.72 41.33, 0 41.33 M143.72 41.33 C103.34 41.33, 62.96 41.33, 0 41.33 M0 41.33 C0 29.97, 0 18.61, 0 0 M0 41.33 C0 32.97, 0 24.61, 0 0" stroke="#000000" stroke-width="1" fill="none"></path></g><g stroke-linecap="round" transform="translate(20.49937088290784 1776.1573311336465) rotate(0 31.25126429966508 21.418522426060235)"><path d="M0 0 C23.72 0, 47.43 0, 62.5 0 M0 0 C23.52 0, 47.04 0, 62.5 0 M62.5 0 C62.5 14.26, 62.5 28.53, 62.5 42.84 M62.5 0 C62.5 16.2, 62.5 32.4, 62.5 42.84 M62.5 42.84 C41.49 42.84, 20.47 42.84, 0 42.84 M62.5 42.84 C44.68 42.84, 26.86 42.84, 0 42.84 M0 42.84 C0 28.93, 0 15.02, 0 0 M0 42.84 C0 28.79, 0 14.74, 0 0" stroke="#000000" stroke-width="1" fill="none"></path></g><g stroke-linecap="round" transform="translate(408.05089109426444 1780.8754849509594) rotate(0 28.74136788504461 16.544788905552423)"><path d="M0 0 C11.81 0, 23.61 0, 57.48 0 M0 0 C22.43 0, 44.86 0, 57.48 0 M57.48 0 C57.48 11.92, 57.48 23.85, 57.48 33.09 M57.48 0 C57.48 11.8, 57.48 23.61, 57.48 33.09 M57.48 33.09 C37.06 33.09, 16.65 33.09, 0 33.09 M57.48 33.09 C35.51 33.09, 13.53 33.09, 0 33.09 M0 33.09 C0 25.94, 0 18.79, 0 0 M0 33.09 C0 25.26, 0 17.43, 0 0" stroke="#000000" stroke-width="1" fill="none"></path></g><g stroke-linecap="round" transform="translate(475.0935742869251 1781.334245893691) rotate(0 27.72173200334828 15.959712437221015)"><path d="M0 0 C16.42 0, 32.85 0, 55.44 0 M0 0 C18.37 0, 36.73 0, 55.44 0 M55.44 0 C55.44 11.84, 55.44 23.68, 55.44 31.92 M55.44 0 C55.44 9.11, 55.44 18.23, 55.44 31.92 M55.44 31.92 C36.97 31.92, 18.51 31.92, 0 31.92 M55.44 31.92 C38.46 31.92, 21.48 31.92, 0 31.92 M0 31.92 C0 22.91, 0 13.9, 0 0 M0 31.92 C0 21.22, 0 10.51, 0 0" stroke="#000000" stroke-width="1" fill="none"></path></g><g transform="translate(25.294467144068165 1789.737570565845) rotate(0 24 9)"><text x="0" y="14" font-family="Helvetica, Segoe UI Emoji" font-size="16px" fill="#000000" text-anchor="start" style="white-space: pre;" direction="ltr">HOME</text></g><g transform="translate(211.94749535974915 1787.669288574704) rotate(0 52 9)"><text x="0" y="14" font-family="Helvetica, Segoe UI Emoji" font-size="16px" fill="#000000" text-anchor="start" style="white-space: pre;" direction="ltr">SEARCH BAR</text></g><g stroke-linecap="round" transform="translate(93.97472430552625 1780.899954235744) rotate(0 31.08673095703125 20.085067749023438)"><path d="M0 0 C21.57 0, 43.14 0, 62.17 0 M0 0 C15.36 0, 30.71 0, 62.17 0 M62.17 0 C62.17 8.1, 62.17 16.19, 62.17 40.17 M62.17 0 C62.17 14.18, 62.17 28.35, 62.17 40.17 M62.17 40.17 C38.95 40.17, 15.72 40.17, 0 40.17 M62.17 40.17 C37.82 40.17, 13.46 40.17, 0 40.17 M0 40.17 C0 29.68, 0 19.19, 0 0 M0 40.17 C0 31.68, 0 23.18, 0 0" stroke="#000000" stroke-width="1" fill="none"></path></g><g transform="translate(97.33284808482313 1788.6047936696864) rotate(0 22.5 9)"><text x="22.5" y="14" font-family="Helvetica, Segoe UI Emoji" font-size="16px" fill="#000000" text-anchor="middle" style="white-space: pre;" direction="ltr">Admin</text></g><g transform="translate(481.89632610054105 1787.4782452659008) rotate(0 22 9)"><text x="22" y="14" font-family="Helvetica, Segoe UI Emoji" font-size="16px" fill="#000000" text-anchor="middle" style="white-space: pre;" direction="ltr">admin</text></g><g transform="translate(431.1761613928129 1787.0829935830745) rotate(0 3 11.5)"><text x="3" y="18" font-family="Helvetica, Segoe UI Emoji" font-size="20px" fill="#000000" text-anchor="middle" style="white-space: pre;" direction="ltr"></text></g><g transform="translate(412.01297300344413 1787.3215854584232) rotate(0 23.5 9)"><text x="0" y="14.000000000000007" font-family="Helvetica, Segoe UI Emoji" font-size="15.999999999999988px" fill="#000000" text-anchor="start" style="white-space: pre;" direction="ltr">basket</text></g><g transform="translate(354.418281318176 1787.2084524366599) rotate(0 17 9)"><text x="0" y="14" font-family="Helvetica, Segoe UI Emoji" font-size="16px" fill="#000000" text-anchor="start" style="white-space: pre;" direction="ltr">login</text></g><g stroke-linecap="round" transform="translate(347.56848011839975 1779.50193126618) rotate(0 24.99847412109375 17.73145403180797)"><path d="M0 0 C18.81 0, 37.63 0, 50 0 M0 0 C16.65 0, 33.3 0, 50 0 M50 0 C50 13.41, 50 26.82, 50 35.46 M50 0 C50 11.92, 50 23.85, 50 35.46 M50 35.46 C35.74 35.46, 21.49 35.46, 0 35.46 M50 35.46 C33.76 35.46, 17.53 35.46, 0 35.46 M0 35.46 C0 23.83, 0 12.2, 0 0 M0 35.46 C0 25.23, 0 15, 0 0" stroke="#000000" stroke-width="1" fill="none"></path></g><g stroke-linecap="round" transform="translate(119.75084735240216 1156.0777453679498) rotate(0 168.0426897386762 45.038696096516276)"><path d="M1 -0.95 C115.84 0.35, 231.14 -0.87, 337.31 0.99 M0.54 -0.13 C72.09 1.91, 144.42 1.14, 336.32 0.62 M336.43 -0.5 C337.36 17.28, 336.52 36.06, 334.93 89.3 M337.03 -0.98 C335.81 25.13, 335.89 52.33, 336.66 89.19 M336.91 90.7 C225.24 92.04, 113.66 90.58, -0.1 91.19 M336.05 89.4 C266.63 89.78, 196.62 90.58, -0.57 90.18 M1.76 89.07 C-1.86 70.86, -2.04 49.24, -1.69 -1.46 M0.44 89.97 C-1.31 70.13, -1.4 50.62, -0.96 -0.91" stroke="#000000" stroke-width="1" fill="none"></path></g><g stroke-linecap="round"><g transform="translate(217.5028995882094 1156.4239405071935) rotate(0 0.678895540713512 44.32626470668879)"><path d="M0.9 -0.84 C1.23 14.04, 1.37 74.62, 1.45 89.5 M-0.09 1.33 C0.17 15.84, 0.57 73.03, 0.73 87.72" stroke="#000000" stroke-width="1" fill="none"></path></g></g><g transform="translate(131.81590281611625 1192.6815967394466) rotate(0 21.68256992291427 8.9053412183398)"><text x="0" y="13.810682436679578" font-family="Helvetica, Segoe UI Emoji" font-size="15.487549944938754px" fill="#000000" text-anchor="start" style="white-space: pre;" direction="ltr">Image</text></g><g stroke-linecap="round" transform="translate(123.71912795645176 1276.8322644418338) rotate(0 168.0426897386762 45.038696096516276)"><path d="M0.74 0.45 C125.42 0.4, 252.78 -1.97, 335.99 -0.81 M0.55 0.04 C127.42 0.58, 255.88 -0.27, 336.67 -0.24 M334.41 -0.35 C333.99 27.41, 335.08 56.85, 334.86 91.59 M335.45 0.35 C336 36.08, 334.32 71.32, 335.51 90.41 M337.29 89.04 C214.38 89.72, 94.31 88.56, 0.71 90.12 M335.71 89.64 C237.26 89.69, 137.68 89.81, 0.23 89.88 M1.85 88.34 C1.74 53.43, -1.01 18.45, 1.72 1.48 M-0.65 89.45 C-0.77 58.16, -0.82 28.46, -0.65 -0.6" stroke="#000000" stroke-width="1" fill="none"></path></g><g stroke-linecap="round"><g transform="translate(218.69078904410162 1277.9529085208096) rotate(0 0.021135921700448534 44.7427484591509)"><path d="M0.66 0.4 C0.9 15.31, 0.39 75.36, 0.59 89.93 M-0.45 -0.44 C-0.33 14.13, -0.92 73.54, -0.58 88.37" stroke="#000000" stroke-width="1" fill="none"></path></g></g><g transform="translate(133.00379227200847 1314.2105647530625) rotate(0 21.68256992291427 8.9053412183398)"><text x="0" y="13.810682436679578" font-family="Helvetica, Segoe UI Emoji" font-size="15.487549944938754px" fill="#000000" text-anchor="start" style="white-space: pre;" direction="ltr">Image</text></g><g stroke-linecap="round" transform="translate(121.04803333452128 1400.0418417297801) rotate(0 168.0426897386762 45.038696096516276)"><path d="M1.22 0.99 C118.23 0.71, 237.95 1.87, 335.83 -0.2 M0.24 0.62 C127.87 1.31, 256.71 0.84, 335.92 0.17 M334.93 -0.78 C335.65 18.24, 337.44 40.81, 334.13 90.64 M336.66 -0.89 C336.7 20.74, 336.74 43.25, 336.55 89.96 M335.99 91.19 C203.92 90.36, 74.3 89.58, -1.35 90.18 M335.52 90.18 C253.49 91.75, 171.58 92.11, -0.34 89.56 M-1.69 88.62 C-0.93 56.45, 2.26 20.25, -0.21 -1.07 M-0.96 89.17 C0.85 68.26, -0.04 48.59, 0.61 -0.23" stroke="#000000" stroke-width="1" fill="none"></path></g><g stroke-linecap="round"><g transform="translate(218.80008557032943 1400.3880368690238) rotate(0 1.0819589290184979 45.27346339022449)"><path d="M1.09 0.88 C1.02 15.75, 0.13 73.93, -0.01 88.75 M0.2 0.3 C0.46 15.4, 1.73 75.64, 2.17 90.25" stroke="#000000" stroke-width="1" fill="none"></path></g></g><g transform="translate(133.11308879823628 1436.6456931012772) rotate(0 21.68256992291427 8.9053412183398)"><text x="0" y="13.810682436679578" font-family="Helvetica, Segoe UI Emoji" font-size="15.487549944938754px" fill="#000000" text-anchor="start" style="white-space: pre;" direction="ltr">Image</text></g><g stroke-linecap="round"><g transform="translate(93.01096756259494 1129.1243785071003) rotate(0 197.45091029575894 -0.6508091517857224)"><path d="M0 0 C65.82 -0.22, 329.08 -1.08, 394.9 -1.3 M0 0 C65.82 -0.22, 329.08 -1.08, 394.9 -1.3" stroke="#000000" stroke-width="1" fill="none"></path></g></g><g transform="translate(266.16857777464793 1097.1183621845555) rotate(0 106.5 9)"><text x="0" y="14" font-family="Helvetica, Segoe UI Emoji" font-size="16px" fill="#000000" text-anchor="start" style="white-space: pre;" direction="ltr">Subtotal (2 items): [total price]</text></g><g transform="translate(1074.6552546719704 380.91348460364037) rotate(0 23 11.5)"><text x="0" y="18" font-family="Helvetica, Segoe UI Emoji" font-size="20px" fill="#000000" text-anchor="start" style="white-space: pre;" direction="ltr">Price</text></g><g transform="translate(1082.0896505983092 525.5790468246225) rotate(0 23 11.5)"><text x="0" y="18" font-family="Helvetica, Segoe UI Emoji" font-size="20px" fill="#000000" text-anchor="start" style="white-space: pre;" direction="ltr">Price</text></g><g transform="translate(1088.3980699621488 674.2874993218322) rotate(0 23 11.5)"><text x="0" y="18" font-family="Helvetica, Segoe UI Emoji" font-size="20px" fill="#000000" text-anchor="start" style="white-space: pre;" direction="ltr">Price</text></g><g transform="translate(869.8920274816792 505.91246226477296) rotate(0 43.16018240792437 49.634209769113)"><text x="0" y="15.853683907645198" font-family="Helvetica, Segoe UI Emoji" font-size="17.264072963169752px" fill="#000000" text-anchor="start" style="white-space: pre;" direction="ltr">Title</text><text x="0" y="35.7073678152904" font-family="Helvetica, Segoe UI Emoji" font-size="17.264072963169752px" fill="#000000" text-anchor="start" style="white-space: pre;" direction="ltr"></text><text x="0" y="55.561051722935595" font-family="Helvetica, Segoe UI Emoji" font-size="17.264072963169752px" fill="#000000" text-anchor="start" style="white-space: pre;" direction="ltr">Description</text><text x="0" y="75.4147356305808" font-family="Helvetica, Segoe UI Emoji" font-size="17.264072963169752px" fill="#000000" text-anchor="start" style="white-space: pre;" direction="ltr"></text><text x="0" y="95.268419538226" font-family="Helvetica, Segoe UI Emoji" font-size="17.264072963169752px" fill="#000000" text-anchor="start" style="white-space: pre;" direction="ltr"></text></g><g transform="translate(876.2648825319029 653.5676659478087) rotate(0 43.16018240792437 49.634209769113)"><text x="0" y="15.853683907645198" font-family="Helvetica, Segoe UI Emoji" font-size="17.264072963169752px" fill="#000000" text-anchor="start" style="white-space: pre;" direction="ltr">Title</text><text x="0" y="35.7073678152904" font-family="Helvetica, Segoe UI Emoji" font-size="17.264072963169752px" fill="#000000" text-anchor="start" style="white-space: pre;" direction="ltr"></text><text x="0" y="55.561051722935595" font-family="Helvetica, Segoe UI Emoji" font-size="17.264072963169752px" fill="#000000" text-anchor="start" style="white-space: pre;" direction="ltr">Description</text><text x="0" y="75.4147356305808" font-family="Helvetica, Segoe UI Emoji" font-size="17.264072963169752px" fill="#000000" text-anchor="start" style="white-space: pre;" direction="ltr"></text><text x="0" y="95.268419538226" font-family="Helvetica, Segoe UI Emoji" font-size="17.264072963169752px" fill="#000000" text-anchor="start" style="white-space: pre;" direction="ltr"></text></g><g transform="translate(240.85725488123444 1166.2948911152196) rotate(0 30.718686533352013 35.32648951335477)"><text x="0" y="11.130595805341912" font-family="Helvetica, Segoe UI Emoji" font-size="12.28747461334081px" fill="#000000" text-anchor="start" style="white-space: pre;" direction="ltr">Title</text><text x="0" y="25.261191610683824" font-family="Helvetica, Segoe UI Emoji" font-size="12.28747461334081px" fill="#000000" text-anchor="start" style="white-space: pre;" direction="ltr"></text><text x="0" y="39.391787416025736" font-family="Helvetica, Segoe UI Emoji" font-size="12.28747461334081px" fill="#000000" text-anchor="start" style="white-space: pre;" direction="ltr">Description</text><text x="0" y="53.52238322136765" font-family="Helvetica, Segoe UI Emoji" font-size="12.28747461334081px" fill="#000000" text-anchor="start" style="white-space: pre;" direction="ltr"></text><text x="0" y="67.65297902670956" font-family="Helvetica, Segoe UI Emoji" font-size="12.28747461334081px" fill="#000000" text-anchor="start" style="white-space: pre;" direction="ltr"></text></g><g transform="translate(388.0152628008391 1189.6407403881917) rotate(0 16.369944491647345 8.184972245823701)"><text x="0" y="13.369944491647345" font-family="Helvetica, Segoe UI Emoji" font-size="14.23473434056291px" fill="#000000" text-anchor="start" style="white-space: pre;" direction="ltr">Price</text></g><g transform="translate(241.20716071270817 1297.0889584980316) rotate(0 35.75668334960983 41.12018585205129)"><text x="0" y="13.448074340820515" font-family="Helvetica, Segoe UI Emoji" font-size="14.302673339843933px" fill="#000000" text-anchor="start" style="white-space: pre;" direction="ltr">Title</text><text x="0" y="29.89614868164103" font-family="Helvetica, Segoe UI Emoji" font-size="14.302673339843933px" fill="#000000" text-anchor="start" style="white-space: pre;" direction="ltr"></text><text x="0" y="46.34422302246155" font-family="Helvetica, Segoe UI Emoji" font-size="14.302673339843933px" fill="#000000" text-anchor="start" style="white-space: pre;" direction="ltr">Description</text><text x="0" y="62.79229736328206" font-family="Helvetica, Segoe UI Emoji" font-size="14.302673339843933px" fill="#000000" text-anchor="start" style="white-space: pre;" direction="ltr"></text><text x="0" y="79.24037170410257" font-family="Helvetica, Segoe UI Emoji" font-size="14.302673339843933px" fill="#000000" text-anchor="start" style="white-space: pre;" direction="ltr"></text></g><g transform="translate(396.263548477772 1318.396235632519) rotate(0 16.60504150390625 8.302520751953125)"><text x="0" y="13.605041503906243" font-family="Helvetica, Segoe UI Emoji" font-size="14.439166525135875px" fill="#000000" text-anchor="start" style="white-space: pre;" direction="ltr">Price</text></g><g transform="translate(243.080504044181 1416.7865728953534) rotate(0 30.26865882455084 34.808957648233445)"><text x="0" y="10.923583059293383" font-family="Helvetica, Segoe UI Emoji" font-size="12.107463529820343px" fill="#000000" text-anchor="start" style="white-space: pre;" direction="ltr">Title</text><text x="0" y="24.847166118586767" font-family="Helvetica, Segoe UI Emoji" font-size="12.107463529820343px" fill="#000000" text-anchor="start" style="white-space: pre;" direction="ltr"></text><text x="0" y="38.77074917788015" font-family="Helvetica, Segoe UI Emoji" font-size="12.107463529820343px" fill="#000000" text-anchor="start" style="white-space: pre;" direction="ltr">Description</text><text x="0" y="52.69433223717353" font-family="Helvetica, Segoe UI Emoji" font-size="12.107463529820343px" fill="#000000" text-anchor="start" style="white-space: pre;" direction="ltr"></text><text x="0" y="66.61791529646692" font-family="Helvetica, Segoe UI Emoji" font-size="12.107463529820343px" fill="#000000" text-anchor="start" style="white-space: pre;" direction="ltr"></text></g><g transform="translate(388.0826521725876 1439.7904062736384) rotate(0 16.130125363808645 8.065062681904351)"><text x="0" y="13.130125363808656" font-family="Helvetica, Segoe UI Emoji" font-size="14.026195968529269px" fill="#000000" text-anchor="start" style="white-space: pre;" direction="ltr">Price</text></g><g transform="translate(186.3800093687721 1702.9607081337604) rotate(0 83.5 16)"><text x="0" y="26" font-family="Helvetica, Segoe UI Emoji" font-size="28px" fill="#000000" text-anchor="start" style="white-space: pre;" direction="ltr">Product page</text></g><g stroke-linecap="round" transform="translate(693.2681028630059 1751.0350650605724) rotate(0 265.6913539341517 368.2487487792969)"><path d="M0.56 0.3 C211.6 0.21, 422.74 0.88, 531.72 -0.03 M-0.27 -0.34 C198.79 0.43, 397.78 0.75, 530.99 0.26 M531.7 0.47 C533.25 222.26, 533.58 445.34, 532.18 736.89 M531.46 -0.03 C533.98 162.61, 534.1 326.02, 531.76 736.32 M530.96 736.14 C372.13 735.53, 213.64 735, -0.7 736.24 M531.5 736.45 C322.21 736.5, 113.16 736.47, -0.07 736.18 M0.77 736.12 C2.88 564.37, 2.16 390.65, -0.7 -0.23 M0.22 736.16 C2.89 488.9, 2.31 241.72, -0.38 0.03" stroke="#000000" stroke-width="1" fill="none"></path></g><g stroke-linecap="round"><g transform="translate(693.3365450714327 1851.5430243355909) rotate(0 265.58609414090483 -0.8620699582621683)"><path d="M0.84 0.45 C89.39 0.13, 442.94 -1.9, 531.35 -2.17 M-0.17 -0.36 C88.26 -0.49, 442.23 -0.36, 530.72 -0.82" stroke="#000000" stroke-width="1" fill="none"></path></g></g><g stroke-linecap="round" transform="translate(871.9982024956316 1771.151086534775) rotate(0 71.8593270438057 20.662939889090353)"><path d="M0 0 C42.61 0, 85.23 0, 143.72 0 M0 0 C52.42 0, 104.84 0, 143.72 0 M143.72 0 C143.72 14.42, 143.72 28.83, 143.72 41.33 M143.72 0 C143.72 10.61, 143.72 21.23, 143.72 41.33 M143.72 41.33 C105.17 41.33, 66.62 41.33, 0 41.33 M143.72 41.33 C111.96 41.33, 80.2 41.33, 0 41.33 M0 41.33 C0 30.11, 0 18.89, 0 0 M0 41.33 C0 28.65, 0 15.97, 0 0" stroke="#000000" stroke-width="1" fill="none"></path></g><g stroke-linecap="round" transform="translate(703.4467847361457 1772.680365971159) rotate(0 31.25126429966508 21.418522426060235)"><path d="M0 0 C23.41 0, 46.82 0, 62.5 0 M0 0 C18.87 0, 37.75 0, 62.5 0 M62.5 0 C62.5 9.47, 62.5 18.95, 62.5 42.84 M62.5 0 C62.5 12.8, 62.5 25.61, 62.5 42.84 M62.5 42.84 C37.92 42.84, 13.34 42.84, 0 42.84 M62.5 42.84 C47.83 42.84, 33.16 42.84, 0 42.84 M0 42.84 C0 28.45, 0 14.05, 0 0 M0 42.84 C0 27.39, 0 11.95, 0 0" stroke="#000000" stroke-width="1" fill="none"></path></g><g stroke-linecap="round" transform="translate(1090.9983049475022 1777.3985197884717) rotate(0 28.74136788504461 16.544788905552423)"><path d="M0 0 C16.31 0, 32.63 0, 57.48 0 M0 0 C21.76 0, 43.53 0, 57.48 0 M57.48 0 C57.48 12.72, 57.48 25.44, 57.48 33.09 M57.48 0 C57.48 8.24, 57.48 16.48, 57.48 33.09 M57.48 33.09 C44.05 33.09, 30.62 33.09, 0 33.09 M57.48 33.09 C45.46 33.09, 33.43 33.09, 0 33.09 M0 33.09 C0 26.07, 0 19.04, 0 0 M0 33.09 C0 25.82, 0 18.55, 0 0" stroke="#000000" stroke-width="1" fill="none"></path></g><g stroke-linecap="round" transform="translate(1158.0409881401629 1777.8572807312034) rotate(0 27.72173200334828 15.959712437221015)"><path d="M0 0 C15.16 0, 30.32 0, 55.44 0 M0 0 C13.26 0, 26.52 0, 55.44 0 M55.44 0 C55.44 7.27, 55.44 14.54, 55.44 31.92 M55.44 0 C55.44 8.37, 55.44 16.74, 55.44 31.92 M55.44 31.92 C38.18 31.92, 20.92 31.92, 0 31.92 M55.44 31.92 C43.86 31.92, 32.28 31.92, 0 31.92 M0 31.92 C0 24.58, 0 17.23, 0 0 M0 31.92 C0 19.34, 0 6.76, 0 0" stroke="#000000" stroke-width="1" fill="none"></path></g><g transform="translate(708.241880997306 1786.2606054033572) rotate(0 24 9)"><text x="0" y="14" font-family="Helvetica, Segoe UI Emoji" font-size="16px" fill="#000000" text-anchor="start" style="white-space: pre;" direction="ltr">HOME</text></g><g transform="translate(894.8949092129869 1784.1923234122164) rotate(0 52 9)"><text x="0" y="14" font-family="Helvetica, Segoe UI Emoji" font-size="16px" fill="#000000" text-anchor="start" style="white-space: pre;" direction="ltr">SEARCH BAR</text></g><g stroke-linecap="round" transform="translate(776.922138158764 1777.4229890732563) rotate(0 31.08673095703125 20.085067749023438)"><path d="M0 0 C14.79 0, 29.57 0, 62.17 0 M0 0 C15.17 0, 30.34 0, 62.17 0 M62.17 0 C62.17 13.11, 62.17 26.22, 62.17 40.17 M62.17 0 C62.17 9.95, 62.17 19.91, 62.17 40.17 M62.17 40.17 C46.44 40.17, 30.71 40.17, 0 40.17 M62.17 40.17 C41.96 40.17, 21.74 40.17, 0 40.17 M0 40.17 C0 25.04, 0 9.91, 0 0 M0 40.17 C0 31.79, 0 23.41, 0 0" stroke="#000000" stroke-width="1" fill="none"></path></g><g transform="translate(780.2802619380609 1785.127828507199) rotate(0 22.5 9)"><text x="22.5" y="14" font-family="Helvetica, Segoe UI Emoji" font-size="16px" fill="#000000" text-anchor="middle" style="white-space: pre;" direction="ltr">Admin</text></g><g transform="translate(1164.8437399537788 1784.0012801034131) rotate(0 22 9)"><text x="22" y="14" font-family="Helvetica, Segoe UI Emoji" font-size="16px" fill="#000000" text-anchor="middle" style="white-space: pre;" direction="ltr">admin</text></g><g transform="translate(1114.1235752460507 1783.6060284205869) rotate(0 3 11.5)"><text x="3" y="18" font-family="Helvetica, Segoe UI Emoji" font-size="20px" fill="#000000" text-anchor="middle" style="white-space: pre;" direction="ltr"></text></g><g transform="translate(1094.960386856682 1783.8446202959353) rotate(0 23.5 9)"><text x="0" y="14.000000000000007" font-family="Helvetica, Segoe UI Emoji" font-size="15.999999999999988px" fill="#000000" text-anchor="start" style="white-space: pre;" direction="ltr">basket</text></g><g transform="translate(1037.3656951714138 1783.7314872741722) rotate(0 17 9)"><text x="0" y="14" font-family="Helvetica, Segoe UI Emoji" font-size="16px" fill="#000000" text-anchor="start" style="white-space: pre;" direction="ltr">login</text></g><g stroke-linecap="round" transform="translate(1030.5158939716375 1776.0249661036923) rotate(0 24.99847412109375 17.731454031808084)"><path d="M0 0 C15.1 0, 30.19 0, 50 0 M0 0 C11.06 0, 22.11 0, 50 0 M50 0 C50 10.6, 50 21.2, 50 35.46 M50 0 C50 13.95, 50 27.89, 50 35.46 M50 35.46 C38.26 35.46, 26.53 35.46, 0 35.46 M50 35.46 C33.2 35.46, 16.4 35.46, 0 35.46 M0 35.46 C0 22.68, 0 9.89, 0 0 M0 35.46 C0 24.31, 0 13.16, 0 0" stroke="#000000" stroke-width="1" fill="none"></path></g><g stroke-linecap="round" transform="translate(29.652510996375213 966.4704432411829) rotate(0 267.90252685546875 345.97015380859375)"><path d="M0.79 -0.56 C115.23 -2.14, 230.83 -1.67, 535.2 0.28 M0.24 -0.09 C108.43 0.06, 216.24 0.22, 536.04 -0.14 M535.46 0.51 C537.16 174.03, 538.57 347.18, 536.01 692.53 M536.2 -0.32 C533.02 218.11, 533.46 435.15, 535.91 692.16 M535.22 691.72 C422.25 692.31, 308.69 692.03, -0.33 691.94 M535.99 691.97 C377.12 693.77, 218.95 693.27, 0.21 692.13 M-0.39 692.46 C-1.15 532.24, -2.48 373.19, 0.36 -0.25 M0.14 691.92 C2.08 532.77, 1.84 373.35, 0.23 -0.09" stroke="#000000" stroke-width="1" fill="none"></path></g></svg>